<?xml version="1.0" encoding="utf-8"?>
<!-- Generator: Adobe Illustrator 25.4.1, SVG Export Plug-In . SVG Version: 6.00 Build 0)  -->
<svg version="1.1" id="Layer_1" xmlns="http://www.w3.org/2000/svg" xmlns:xlink="http://www.w3.org/1999/xlink" x="0px" y="0px"
	 viewBox="0 0 348 104" style="enable-background:new 0 0 348 104;" xml:space="preserve">
<style type="text/css">
	.st0{fill:none;stroke:#000000;stroke-width:0.25;stroke-miterlimit:10;}
	.st1{fill:#D02329;}
	.st2{fill-rule:evenodd;clip-rule:evenodd;fill:#221F1F;}
	.st3{fill:#231F20;}
	.st4{fill:#978B58;}
</style>
<g>
	<line class="st0" x1="120.2" y1="93.1" x2="120.2" y2="10.9"/>
	<g>
		<path class="st1" d="M41,61.5l-5.4,11.7l-5.5-11.7h-0.2L28,75.6h1.2l1.2-10.1l4.8,10.1h0.4l4.7-10.1l1.2,10.1h1.5l-2-14.2H41z
			 M12.3,61.5h-1.7l-5.5,5.4v-5.4H3.9v14.2h1.3v-6.5l5.9,6.5h1.8L6.1,68L12.3,61.5z M20,61.5l-6.3,14.2h1.4l2.3-4.6h5.7l2,4.6h1.4
			l-6.2-14.2H20z M17.8,69.7l2.5-5.2l2.3,5.2H17.8z M55.8,64.2c-1.5-1.9-3.5-2.6-5.8-2.6c-0.4,0-0.9,0-1.4,0h-2.6v14.2h4.2
			c2.6,0,4.8-0.6,6.2-3.1c0.6-1.3,1.1-2.6,0.9-4.1C57.2,66.9,56.6,65.4,55.8,64.2 M54.1,73.1c-1.4,1.4-3.6,1.3-5.4,1.3H47V63.1h1.1
			c2.1,0,4.2-0.1,5.9,1.5c1.1,1.1,1.7,2.5,1.8,4C55.8,70.3,55.1,71.8,54.1,73.1 M104,61.5V70c0,2-0.4,4.6-3.1,4.6
			c-2.7,0-3.3-2.4-3.3-4.6v-8.5h-1.3V70c-0.1,1.1,0,2,0.2,3.1c0.5,1.8,2.5,2.8,4.3,2.8c1.8,0.1,3.6-1.1,4-2.8
			c0.2-0.9,0.3-1.8,0.2-2.7v-9h-1.2v0.1H104z M91.7,72.4l-9-10.9h-0.2v14.2h1.5V64.9l8.7,10.6h0.4V61.5h-1.5L91.7,72.4L91.7,72.4z
			 M67.9,67.4h-6.8v-5.9h-1.5v14.2h1.5V69h6.7v6.7h1.4V61.5h-1.4L67.9,67.4L67.9,67.4z M72.6,75.6h7.6v-1.3h-6.3v-5.5h6.3v-1.4h-6.3
			V63h6.3v-1.6h-7.6V75.6z"/>
		<g>
			<path class="st2" d="M31.7,85.1v-5.4h2.6c0.4,0,1.1,0.1,1.4,0.4c0.4,0.3,0.5,0.6,0.4,1.1c0,0.3-0.1,0.5-0.2,0.8
				c-0.2,0.2-0.4,0.4-0.7,0.4c0.2,0,0.4,0.1,0.5,0.3c0.2,0.2,0.2,0.4,0.3,0.7c0,0.1,0,0.3,0,0.5c0,0.4,0.1,0.6,0.3,1.1h-0.6
				c-0.1-0.3-0.1-0.5-0.1-0.8c0-0.4,0-0.6-0.1-0.7c0-0.2-0.1-0.4-0.3-0.5c-0.2-0.1-0.4-0.2-0.7-0.2h-2.2v2.3
				C32.3,85.1,31.7,85.1,31.7,85.1z M34.1,80.3h-1.9v2h1.9c0.4,0,0.7-0.1,1.1-0.3c0.3-0.2,0.4-0.4,0.4-0.7c0-0.3-0.1-0.5-0.4-0.7
				C34.9,80.3,34.6,80.3,34.1,80.3"/>
			<path class="st2" d="M72.9,83.3h0.5l0,0c0,0.4,0.2,0.7,0.4,1.1c0.4,0.3,0.8,0.4,1.2,0.4c0.4,0,0.8-0.1,1.2-0.3
				c0.3-0.2,0.4-0.4,0.4-0.8c0-0.2-0.1-0.4-0.3-0.5c-0.4-0.2-0.6-0.3-1.1-0.4l-1.1-0.3c-0.4,0-0.6-0.2-0.9-0.4
				c-0.2-0.3-0.4-0.5-0.3-0.9c0-0.4,0.2-0.8,0.5-1.1c0.4-0.3,0.9-0.4,1.5-0.4c0.5,0,1.1,0.1,1.5,0.4c0.4,0.3,0.5,0.7,0.5,1.2h-0.5
				c0-0.4-0.2-0.6-0.4-0.8c-0.4-0.2-0.7-0.3-1.1-0.3c-0.4,0-0.8,0-1.1,0.2c-0.3,0.2-0.4,0.4-0.4,0.7c0,0.2,0.1,0.4,0.3,0.5
				c0.4,0.2,0.6,0.3,1.1,0.4l1.1,0.2c0.4,0,0.7,0.2,1.1,0.4c0.3,0.3,0.4,0.5,0.4,0.9c0,0.4-0.2,0.9-0.5,1.2
				c-1.1,0.5-2.2,0.5-3.3-0.1C73.2,84.4,72.9,83.9,72.9,83.3L72.9,83.3z M67.2,85.1v-5.4h4v0.4h-3.5V82h3.3v0.4h-3.3v1.9h3.5V85
				L67.2,85.1L67.2,85.1z M64.5,79.8H65v5.3h-0.5V79.8z M60.3,85.1v-4.7h-2v-0.4h4.6v0.4h-2v4.7H60.3z M56.2,79.8h0.5v5.3h-0.5V79.8
				z M50.6,85.1v-5.4h0.5v4.7h3.3V85L50.6,85.1L50.6,85.1z M43.5,85.1l2.5-5.3h0.6l2.4,5.3h-0.5l-0.7-1.7h-2.8l-0.9,1.7H43.5z
				 M45,82.9h2.4l-1.2-2.6L45,82.9z M38.2,85.1v-5.4h4v0.4h-3.5V82H42v0.4h-3.3v1.9h3.5V85L38.2,85.1L38.2,85.1z"/>
			<path class="st3" d="M31.7,85.1v-5.4h2.6c0.4,0,1.1,0.1,1.4,0.4c0.4,0.3,0.5,0.6,0.4,1.1c0,0.3-0.1,0.5-0.2,0.8
				c-0.2,0.2-0.4,0.4-0.7,0.4c0.2,0,0.4,0.1,0.5,0.3c0.2,0.2,0.2,0.4,0.3,0.7c0,0.1,0,0.3,0,0.5c0,0.4,0.1,0.6,0.3,1.1h-0.6
				c-0.1-0.3-0.1-0.5-0.1-0.8c0-0.4,0-0.6-0.1-0.7c0-0.2-0.1-0.4-0.3-0.5c-0.2-0.1-0.4-0.2-0.7-0.2h-2.2v2.3
				C32.3,85.1,31.7,85.1,31.7,85.1z M34.1,80.3h-1.9v2h1.9c0.4,0,0.7-0.1,1.1-0.3c0.3-0.2,0.4-0.4,0.4-0.7c0-0.3-0.1-0.5-0.4-0.7
				C34.9,80.3,34.6,80.3,34.1,80.3"/>
			<path class="st3" d="M72.9,83.3h0.5l0,0c0,0.4,0.2,0.7,0.4,1.1c0.4,0.3,0.8,0.4,1.2,0.4c0.4,0,0.8-0.1,1.2-0.3
				c0.3-0.2,0.4-0.4,0.4-0.8c0-0.2-0.1-0.4-0.3-0.5c-0.4-0.2-0.6-0.3-1.1-0.4l-1.1-0.3c-0.4,0-0.6-0.2-0.9-0.4
				c-0.2-0.3-0.4-0.5-0.3-0.9c0-0.4,0.2-0.8,0.5-1.1c0.4-0.3,0.9-0.4,1.5-0.4c0.5,0,1.1,0.1,1.5,0.4c0.4,0.3,0.5,0.7,0.5,1.2h-0.5
				c0-0.4-0.2-0.6-0.4-0.8c-0.4-0.2-0.7-0.3-1.1-0.3c-0.4,0-0.8,0-1.1,0.2c-0.3,0.2-0.4,0.4-0.4,0.7c0,0.2,0.1,0.4,0.3,0.5
				c0.4,0.2,0.6,0.3,1.1,0.4l1.1,0.2c0.4,0,0.7,0.2,1.1,0.4c0.3,0.3,0.4,0.5,0.4,0.9c0,0.4-0.2,0.9-0.5,1.2
				c-1.1,0.5-2.2,0.5-3.3-0.1C73.2,84.4,72.9,83.9,72.9,83.3L72.9,83.3z M67.2,85.1v-5.4h4v0.4h-3.5V82h3.3v0.4h-3.3v1.9h3.5V85
				L67.2,85.1L67.2,85.1z M64.5,79.8H65v5.3h-0.5V79.8z M60.3,85.1v-4.7h-2v-0.4h4.6v0.4h-2v4.7H60.3z M56.2,79.8h0.5v5.3h-0.5V79.8
				z M50.6,85.1v-5.4h0.5v4.7h3.3V85L50.6,85.1L50.6,85.1z M43.5,85.1l2.5-5.3h0.6l2.4,5.3h-0.5l-0.7-1.7h-2.8l-0.9,1.7H43.5z
				 M45,82.9h2.4l-1.2-2.6L45,82.9z M38.2,85.1v-5.4h4v0.4h-3.5V82H42v0.4h-3.3v1.9h3.5V85L38.2,85.1L38.2,85.1z"/>
		</g>
		<path class="st1" d="M53.6,25.4l-1.8,13.1l-9.8,15.3h0.5l9.8-15.4L53.6,25.4z M54.4,20.8l-1.3,17.9l-9.3,15.1h1.1L54,38.7
			L54.4,20.8z M54.4,20.3c0.4,0,0.6-0.6,0.6-0.9c0-0.4-0.3-0.6-0.6-0.6s-0.6,0.3-0.6,0.6C53.7,19.7,54.2,20.3,54.4,20.3 M57,38.4
			l-1.8-13.1l1.3,13.1l9.9,15.4h0.5L57,38.4z M54.4,20.8L55,38.7L64,53.8h1.1l-9.5-15.1L54.4,20.8z M46.1,53.8H63l-8.4-14.4
			L46.1,53.8z"/>
	</g>
	<g>
		<g>
			<g>
				<path class="st4" d="M181.2,56.3c-4.9,0-10.2-3.7-10.2-9.6c0-0.8,0.1-1.5,0.2-2.3c0,0,0,0,0,0c0.8-4.8,5.3-8.8,9.9-8.8
					c2.6,0,4.1,0.4,5.1,0.7c0.4,0.1,0.7,0.2,0.9,0.2c0.1,0,0.4-0.1,0.6-0.2c0.1,0,0.2-0.1,0.3-0.1c0.1-0.1,0.3,0,0.4,0.1
					c0.1,0.1,0.2,0.2,0.2,0.4v4.1c0,0.2-0.2,0.4-0.4,0.5c-0.2,0.1-0.4,0-0.5-0.2c-1.6-3.1-4.4-3.5-6.3-3.5c-2.5,0-7.7,1.8-7.7,7.5
					c0,6.7,5.4,9.1,8.7,9.1c1.5,0,2.8-0.5,3.7-1.1v-4.8c0-0.1-0.1-0.3-0.2-0.4c-0.2-0.2-0.2-0.4-0.6-0.4c-0.4,0-0.6-0.2-0.6-0.6
					c0-0.1,0.1-0.2,0.1-0.3l0.1-0.1c0.1-0.1,0.3-0.2,0.4-0.1c0.7,0.1,1.4,0.1,2.1,0.1s1.4,0,2.1-0.1c0.2,0,0.3,0,0.4,0.1l0.1,0.1
					c0.1,0.1,0.1,0.2,0.1,0.3c0,0.3-0.2,0.6-0.6,0.6c-0.5,0-0.8,0.3-0.8,0.8v4.2c0,0.1,0,0.2-0.1,0.3C186.9,55,185,56.3,181.2,56.3z
					 M172.1,44.6c-0.1,0.7-0.2,1.4-0.2,2.1c0,5.3,4.8,8.6,9.2,8.6c1.7,0,2.9-0.3,4-0.8c-0.9,0.3-1.8,0.5-2.7,0.5
					c-3.7,0-9.7-2.7-9.7-10.1c0-1.7,0.4-3.1,1.1-4.2C173,41.9,172.4,43.3,172.1,44.6z M186.8,47.3c0.1,0.3,0.3,0.6,0.3,0.9v5
					c0.3-0.3,0.6-0.6,0.9-1v-4c0-0.3,0.1-0.6,0.2-0.9C187.7,47.4,187.3,47.4,186.8,47.3z M184.1,36.9c1.4,0.4,2.6,1.2,3.5,2.3v-1.8
					c-0.5,0.2-1,0.1-1.7-0.1C185.4,37.2,184.9,37,184.1,36.9z"/>
				<path class="st4" d="M171.6,44.6c0.7-4.3,4.9-8.4,9.4-8.4c3.8,0,5.1,0.8,6,0.8c0.3,0,0.7-0.2,1-0.3v4.1
					c-1.7-3.2-4.5-3.8-6.7-3.8c-2.6,0-8.2,1.9-8.2,8c0,7.1,5.8,9.6,9.2,9.6c1.7,0,3.1-0.6,4.2-1.3v-5.1c0-0.2-0.1-0.4-0.2-0.6
					c-0.2-0.3-0.4-0.6-1-0.6c-0.1,0-0.1,0-0.1-0.1l0.1-0.1c0.7,0.1,1.5,0.1,2.2,0.1c0.7,0,1.5,0,2.2-0.1l0.1,0.1c0,0,0,0.1-0.1,0.1
					c-0.7,0-1.3,0.5-1.3,1.3v4.2c-2,2.3-3.9,3.5-7.3,3.5c-4.8,0-9.7-3.7-9.7-9.1C171.4,46,171.5,45.3,171.6,44.6"/>
				<path class="st4" d="M181.3,56.5c-2.5,0-5.1-1-7.1-2.6c-2.2-1.9-3.3-4.4-3.3-7.1c0-0.8,0-1.5,0.2-2.3c0.4-2.2,1.7-4.4,3.5-6.1
					c2.1-1.8,4.2-2.7,6.5-2.7c2.3,0,3.7,0.3,4.7,0.6l0.3,0.1l0.3,0.1c0.2,0.1,0.4,0.1,0.5,0.1c0.1,0,0.4-0.1,0.6-0.2
					c0.1,0,0.1-0.1,0.2-0.1l0,0c0.1-0.1,0.2-0.1,0.3-0.1c0.1,0,0.1,0,0.2,0c0.2,0.1,0.3,0.2,0.3,0.4v4.6c0,0.2-0.2,0.4-0.4,0.5
					c0,0-0.1,0-0.1,0c-0.2,0-0.4-0.1-0.5-0.3l-0.1-0.3c-1.5-3.1-4.2-3.4-6.1-3.4c-2.5,0-7.6,1.8-7.6,7.4c0,3.5,2.3,9,8.6,9
					c1.3,0,2.5-0.3,3.6-1V48c0-0.1-0.1-0.3-0.2-0.4c-0.1-0.2-0.2-0.3-0.5-0.3c-0.3,0-0.6-0.2-0.6-0.6v-0.2c0-0.1,0.1-0.3,0.2-0.4
					c0.1-0.1,0.2-0.1,0.3-0.1c0,0,0,0,0.1,0c0.7,0.1,1.4,0.1,2.1,0.1c0.7,0,1.4,0,2.1-0.1c0,0,0,0,0.1,0c0.1,0,0.2,0,0.3,0.1
					c0.1,0.1,0.2,0.2,0.2,0.4v0c0,0.1,0.1,0.3,0,0.4c0,0.1-0.1,0.1-0.1,0.1c-0.1,0.2-0.3,0.3-0.5,0.3c-0.1,0-0.2,0-0.3,0
					c-0.4,0.1-0.4,0.6-0.4,0.7v4.2c0,0.1,0,0.2-0.1,0.3c-0.1,0.2-0.3,0.3-0.4,0.4C186.5,55.5,184.6,56.5,181.3,56.5z M173,42.1
					c-0.4,0.8-0.8,1.7-0.9,2.5c-0.1,0.7-0.2,1.4-0.2,2.1c0,2.4,1,4.6,2.9,6.1c1.7,1.5,4.1,2.4,6.4,2.4c1.1,0,2-0.1,2.8-0.4
					c-0.5,0.1-1,0.2-1.6,0.2c-3.8,0-9.8-2.8-9.8-10.2C172.6,43.9,172.8,42.9,173,42.1z M186.9,47.4c0,0.1,0.1,0.2,0.1,0.3
					c0,0.1,0,0.2,0.1,0.2c0,0.1,0.1,0.1,0.1,0.2V53c0.2-0.2,0.4-0.4,0.5-0.6c0.1-0.1,0.2-0.3,0.3-0.4v-4c0-0.2,0-0.4,0.1-0.6
					c-0.2,0-0.3,0-0.5,0C187.3,47.4,187.1,47.4,186.9,47.4z M185.4,37.2c0.8,0.4,1.5,0.9,2,1.6v-1.4c-0.1,0-0.3,0.1-0.5,0.1
					c-0.3,0-0.6-0.1-0.9-0.2l-0.2-0.1C185.9,37.3,185.5,37.2,185.4,37.2z"/>
				<path class="st4" d="M181.3,56c-2.4,0-4.9-0.9-6.8-2.5c-2-1.8-3.1-4.1-3.1-6.7c0-0.7,0-1.5,0.2-2.2c0.4-2.1,1.6-4.2,3.3-5.9
					c1.9-1.7,4-2.6,6.2-2.6c2.5,0,4,0.4,4.9,0.6c0.4,0.1,0.7,0.2,0.9,0.2c0.3,0,0.7-0.2,1-0.3l0.1-0.1v4.6l-0.1-0.3
					c-1.7-3.3-4.6-3.8-6.6-3.8c-2.6,0-8.1,1.9-8.1,7.8c0,3.7,2.5,9.5,9.1,9.5c1.8,0,3.1-0.6,4.1-1.3V48c0-0.2-0.1-0.4-0.2-0.6
					c-0.2-0.3-0.4-0.5-0.9-0.5c0,0-0.1,0-0.1-0.1v-0.1l0,0v-0.1l0,0l0,0c0.7,0.1,1.5,0.1,2.2,0.1c0.7,0,1.5,0,2.2-0.1l0,0l0,0v0.1
					l0,0c0.1,0.1,0,0.1,0,0.1c0,0.1-0.1,0.1-0.1,0.1c-0.7,0-1.2,0.4-1.2,1.2v4.2l0,0C186.5,55,184.5,56,181.3,56 M181.1,36.2
					c-2.1,0-4.3,0.9-6.1,2.6c-1.7,1.6-2.9,3.7-3.3,5.8l0,0c-0.1,0.7-0.2,1.5-0.2,2.2c0,2.5,1,4.8,3,6.5c1.8,1.6,4.3,2.5,6.7,2.5
					c3.1,0,5.1-0.9,7.2-3.5v-4.2c0-0.6,0.3-1.2,0.9-1.3c-1.3,0.1-2.4,0.1-3.7,0c0.4,0.1,0.5,0.3,0.7,0.6c0.1,0.2,0.1,0.4,0.2,0.6
					v5.2l0,0c-0.9,0.5-2.4,1.3-4.2,1.3c-3.6,0-9.3-2.6-9.3-9.7c0-6.1,5.5-8.1,8.3-8.1c2,0,4.9,0.4,6.6,3.6v-3.7
					c-0.3,0.1-0.6,0.3-0.9,0.3c-0.3,0-0.6-0.1-1-0.2C185,36.6,183.6,36.2,181.1,36.2"/>
				<path class="st4" d="M224.4,71.7c-1.5,0-3.1-0.2-4.8-0.7c-13.4-3.6-22.4-20.2-24.1-24.1l-1.7-0.1v7.2c0,0.5,0.3,0.8,0.8,0.8
					c0.4,0,0.6,0.2,0.6,0.6c0,0.1-0.1,0.2-0.1,0.3l-0.1,0.1c-0.1,0.1-0.2,0.1-0.3,0.1h-0.8c0,0-0.1,0-0.1,0c-0.4-0.1-1-0.1-1.2-0.1
					c-0.3,0-0.8,0-1.3,0.1l-0.9,0c-0.1,0-0.2,0-0.2-0.1c-0.2,0-0.4-0.1-0.4-0.3c-0.1-0.2,0-0.4,0.1-0.6c0.1-0.1,0.2-0.1,0.3-0.1
					c0.4,0,0.5-0.1,0.6-0.4c0,0,0-0.1,0-0.2c0-0.1,0-0.2,0.1-0.3V37.9c0-0.1-0.1-0.3-0.2-0.4c-0.2-0.2-0.2-0.4-0.6-0.4
					s-0.6-0.2-0.6-0.6c0-0.1,0.1-0.2,0.1-0.3l0.1-0.1c0.1-0.1,0.2-0.1,0.3-0.1c0,0,0,0,0.1,0c0.7,0.1,1.4,0.1,2.1,0.1
					c0.7,0,1.7,0,2.5-0.1c0.6,0,1,0,1.2,0c3.5,0,5.7,2.2,5.7,5.5c0,2.2-1.7,4-3.2,4.7c1.2,2.7,7,12.7,17,19.4c6,4,10.2,4.5,11.6,4.5
					c0.5,0,0.9-0.1,1-0.1l0.2-0.1c0.1-0.1,0.2-0.1,0.3-0.1c0.3,0,0.5,0.2,0.5,0.5c0,0.4-0.4,0.6-0.6,0.6
					C227.6,71.3,226.3,71.7,224.4,71.7z M193.7,45.3c0.2,0,0.6,0.1,1.3,0.1c2.5,0,3.6-1.2,3.8-2.3c0.3-1.6,0.1-2.8-0.7-3.7
					c-1.1-1.3-3-1.5-3.8-1.5c-0.3,0-0.7,0.1-0.7,0.4V45.3z"/>
				<path class="st4" d="M189.9,55.5c0.6,0,0.8-0.3,1-0.6c0.1-0.2,0.1-0.4,0.2-0.6V37.9c0-0.2-0.1-0.4-0.2-0.6
					c-0.2-0.3-0.4-0.6-1-0.6c-0.1,0-0.1,0-0.1-0.1l0.1-0.1c0.7,0.1,1.5,0.1,2.2,0.1c1.2,0,3.2-0.1,3.8-0.1c2.9,0,5.2,1.7,5.2,5
					c0,2.2-2,4-3.3,4.5c0.5,1.4,6.3,12.7,17.4,20.1c8.3,5.5,13.4,4.6,13.4,4.3c-0.1,0-2.7,1.9-8.9,0.2c-13.6-3.7-22.7-21-23.9-24.1
					l-2.5-0.1v7.7c0,0.7,0.4,1.3,1.3,1.3c0.1,0,0.1,0,0.1,0.1l-0.1,0.1c-0.3,0-0.6,0-0.8,0c-0.4-0.1-1-0.1-1.4-0.1s-0.8,0-1.4,0.1
					c-0.3,0-0.5,0-0.8,0v-0.1C189.8,55.6,189.9,55.5,189.9,55.5 M193.2,38.2v7.4c0.2,0.1,0.6,0.2,1.8,0.2c2.8,0,4.1-1.5,4.3-2.7
					c0.8-4.4-2.3-5.8-4.9-5.8C193.6,37.4,193.2,37.7,193.2,38.2"/>
				<path class="st4" d="M224.5,71.8c-1.6,0-3.2-0.2-4.9-0.8c-13.1-3.6-22.2-19.4-24.1-24.1l-1.6-0.1v7.1c0,0.5,0.2,0.7,0.7,0.7
					c0.4,0,0.6,0.2,0.6,0.6v0.1c0,0.1,0,0.2-0.1,0.3l-0.1,0.1c-0.1,0.1-0.2,0.1-0.3,0.1h-0.8c0,0-0.1,0-0.1,0
					c-0.4-0.1-1-0.1-1.2-0.1c-0.3,0-0.8,0-1.3,0.1l-0.9,0c-0.1,0-0.2-0.1-0.3-0.1l-0.1-0.1c-0.1-0.1-0.3-0.3-0.2-0.6
					c0-0.1,0.1-0.1,0.2-0.2c0.1-0.1,0.3-0.2,0.5-0.2c0.3,0,0.4-0.1,0.5-0.3c0-0.1,0-0.2,0-0.4V37.8c0-0.1-0.1-0.3-0.2-0.4
					c-0.1-0.2-0.2-0.3-0.5-0.3c-0.3,0-0.6-0.2-0.6-0.6v-0.2c0-0.1,0.1-0.3,0.2-0.4c0.1-0.1,0.2-0.1,0.3-0.1c0,0,0,0,0.1,0
					c0.7,0.1,1.4,0.1,2.1,0.1c0.7,0,1.6,0,2.5-0.1l1.3,0c3.5,0,5.8,2.2,5.8,5.6c0,0,0,0,0,0c0,2.2-1.8,4-3.2,4.7
					c1.2,2.6,7,12.6,16.9,19.3c5.8,3.9,9.7,4.5,11.6,4.5c0.4,0,0.7,0,0.9-0.1c0,0,0.1,0,0.1,0c0,0,0,0,0.1-0.1
					c0.1-0.1,0.2-0.1,0.3-0.1h0.1c0.3,0,0.5,0.2,0.5,0.5v0.1c0,0.2-0.1,0.3-0.1,0.4c-0.1,0.2-0.2,0.3-0.4,0.3c0,0-0.1,0.1-0.1,0.1
					C227.3,71.6,226.1,71.8,224.5,71.8z M196.3,46.4c1.2,3.2,10.3,20.2,23.5,23.7c1.4,0.4,2.6,0.6,3.8,0.7c-2.2-0.6-5.1-1.8-8.7-4.2
					c-10.9-7.4-16.8-18.4-17.5-20.3c0,0,0-0.1,0-0.2C196.9,46.2,196.6,46.3,196.3,46.4C196.2,46.3,196.2,46.4,196.3,46.4z
					 M191.7,37.2c0,0.1,0.1,0.2,0.1,0.2c0,0.1,0,0.2,0.1,0.2c0,0.1,0,0.1,0,0.2v16.3c0,0.3-0.1,0.5-0.2,0.7c0.2,0,0.5,0,0.6,0
					c0.2,0,0.4,0,0.6,0c-0.1-0.2-0.1-0.4-0.1-0.7v-7.4c-0.1-0.1-0.1-0.2-0.1-0.3c0-0.1,0.1-0.3,0.2-0.4c-0.1-0.1-0.2-0.2-0.2-0.4
					v-7.4c0-0.3,0.1-0.6,0.3-0.8c0.1-0.1,0.2-0.2,0.4-0.3c-0.4,0-0.8,0-1.1,0C192.1,37.2,191.9,37.2,191.7,37.2z M193.8,45.1
					c0.3,0.1,0.7,0.1,1.2,0.1c2.5,0,3.5-1.2,3.7-2.2c0.3-1.6,0.1-2.8-0.6-3.6c-0.8-0.9-2.1-1.5-3.8-1.5c-0.2,0-0.4,0.1-0.5,0.2
					c0,0,0,0.1,0,0.1V45.1z M195.7,37.1c1.3,0.2,2.4,0.8,3.2,1.7c0.9,1.1,1.2,2.6,0.8,4.6c-0.1,0.2-0.1,0.4-0.2,0.6
					c0.6-0.7,1-1.6,1.1-2.5c0-2.7-1.8-4.4-4.6-4.4H195.7z"/>
				<path class="st4" d="M224.5,71.4c-1.5,0-3-0.2-4.8-0.7c-13.5-3.7-22.6-20.7-24-24.1l-2.4-0.1v7.6c0,0.7,0.4,1.2,1.2,1.2
					c0.1,0,0.1,0,0.1,0.1v0.1l-0.1,0.1l0,0c-0.3,0-0.6,0-0.8,0c-0.4-0.1-1-0.1-1.4-0.1s-0.8,0-1.4,0.1c-0.3,0-0.5,0-0.8,0l0,0
					l-0.1-0.1c-0.1-0.1-0.1-0.1,0-0.1c0-0.1,0.1-0.1,0.1-0.1c0.5,0,0.7-0.2,0.9-0.5c0.1-0.2,0.1-0.4,0.1-0.6V37.8
					c0-0.2-0.1-0.4-0.2-0.6c-0.2-0.3-0.4-0.5-0.9-0.5c0,0-0.1,0-0.1-0.1v-0.1l0,0v-0.1l0,0l0,0c0.7,0.1,1.5,0.1,2.2,0.1
					c0.7,0,1.7,0,2.5-0.1c0.5,0,1,0,1.3,0c3.2,0,5.3,2,5.3,5.1c0,2.2-2,4-3.3,4.5c0.6,1.7,6.5,12.7,17.3,20
					c8.1,5.4,12.7,4.5,12.9,4.5l0,0c0.1,0,0.2-0.1,0.3-0.1s0.1,0,0.1-0.1h0.1v0.1c0,0.1-0.1,0.1-0.1,0.2c-0.1,0-0.2,0.1-0.3,0.1
					C227.2,71.1,225.9,71.4,224.5,71.4 M193.2,46.5l2.6,0.1l0,0c1.3,3.2,10.4,20.4,23.9,24c3.1,0.8,5.9,0.9,7.8,0.2
					c-1.9,0.1-6.2-0.4-12.4-4.6c-11-7.4-16.8-18.7-17.4-20.1v-0.1h0.1c1.4-0.5,3.3-2.3,3.3-4.4c0-3-2-4.9-5.1-4.9
					c-0.2,0-0.7,0-1.3,0c-0.8,0-1.8,0.1-2.5,0.1c-0.6,0-1.3,0-1.8-0.1c0.4,0.1,0.5,0.3,0.7,0.6c0.1,0.2,0.1,0.4,0.2,0.6v16.3
					c0,0.2-0.1,0.4-0.2,0.6c-0.2,0.3-0.4,0.5-0.8,0.6c0.2,0,0.4,0,0.6,0c0.5-0.1,1-0.1,1.4-0.1s0.9,0,1.4,0.1c0.2,0,0.4,0,0.6,0
					c-0.6-0.1-1-0.6-1-1.3v-7.7H193.2z M195,45.9c-0.8,0-1.5-0.1-1.8-0.2l0,0v-7.4c0-0.2,0.1-0.4,0.2-0.5c0.2-0.2,0.5-0.3,0.9-0.3
					c1.9,0,3.3,0.6,4.3,1.7c0.8,1,1,2.4,0.7,4.2C199,44.5,197.8,45.9,195,45.9 M193.3,45.5c0.3,0.1,0.9,0.2,1.7,0.2
					c2.7,0,4-1.4,4.2-2.6c0.3-1.7,0.1-3-0.7-4c-0.8-1-2.4-1.7-4.2-1.7c-0.4,0-0.7,0.1-0.8,0.3c-0.1,0.1-0.2,0.3-0.1,0.4l0,0V45.5z"
					/>
				<path class="st4" d="M205.4,56c-0.1,0-0.2,0-0.3-0.1c-0.1-0.1-0.2-0.2-0.2-0.4v-0.1c0-0.3,0.2-0.5,0.5-0.5h0.1
					c0.4-0.2,0.7-0.6,1-1.3l7.8-17.5c0.1-0.2,0.2-0.3,0.4-0.3c0,0,0,0,0,0c0.2,0,0.4,0.1,0.4,0.3c1.3,3.1,2.4,6,3.4,8.5
					c0.7,1.7,1.4,3.5,2.1,5c0.8,2.1,1.6,3.8,1.7,4.1c0.4,1,1.1,1.3,1.2,1.3c0.3,0,0.5,0.2,0.5,0.5c0,0.3-0.2,0.5-0.5,0.5h-4.2
					c-0.3,0-0.5-0.2-0.5-0.5c0-0.3,0.2-0.5,0.5-0.5c-0.1,0,0.3-0.1,0.2-0.7c-0.1-0.3-0.9-2.3-1.7-4.4l-0.6-1.6H211l-2.7,6
					c0,0,0,0.2,0,0.2c0.1,0.3,0.1,0.4,0.4,0.4c0.2,0,0.4,0.3,0.4,0.5c0,0.2-0.2,0.4-0.5,0.4h-2.8c-0.1,0-0.1,0.1-0.2,0.1
					C205.5,56,205.5,56,205.4,56z M216.4,46.5c-0.6-1.5-1.3-3-1.7-4.1c-0.2-0.4-0.3-0.7-0.5-1.1l-2.3,5.2H216.4z"/>
				<path class="st4" d="M205.4,55.6c0.8-0.3,1.3-0.9,1.6-1.7l7.8-17.5c1.3,3.1,2.4,6,3.5,8.5c1.8,4.3,3.6,8.7,3.8,9.1
					c0.5,1.2,1.4,1.6,1.6,1.6h-4.2c0.1,0,0.8-0.3,0.6-1.3c-0.1-0.4-1.3-3.2-2.5-6.4h-6.9l-2.8,6.3c-0.1,0.2-0.1,0.3,0,0.5
					c0.1,0.3,0.2,0.6,0.7,0.7h-3.1V55.6z M217.1,47c-0.7-1.8-1.5-3.6-2-4.8c-0.3-0.7-0.6-1.5-0.8-2.2l-3.1,7
					C211.2,47,217.1,47,217.1,47z"/>
				<path class="st4" d="M205.1,56.2c-0.2,0-0.4-0.2-0.5-0.4c0-0.2,0.1-0.5,0.4-0.5l0.4-0.1c0.2-0.1,0.4-0.2,0.6-0.4
					c0.2-0.2,0.4-0.6,0.6-0.9l7.7-17.3c0-0.1,0.1-0.2,0.2-0.2l0.1-0.2c0.1-0.2,0.2-0.3,0.4-0.3c0,0,0,0,0,0c0.2,0,0.3,0.1,0.4,0.3
					l0.1,0.2l0.6,1.4c0.4,1.1,0.9,2.1,1.2,3.2c0.4,0.9,0.8,1.9,1.2,2.9l0.4,1.1c0.6,1.6,1.3,3.3,1.9,4.7c0.3,0.7,0.6,1.3,0.8,1.9
					c0.6,1.5,0.9,2.2,1,2.3c0,0,0,0,0.1,0.1c0.4,0.8,1,1.2,1.2,1.3c0.2,0.1,0.4,0.2,0.4,0.5c0,0.3-0.2,0.5-0.5,0.5h-4.4
					c-0.3,0-0.5-0.2-0.5-0.5v-0.1c0-0.2,0.1-0.4,0.3-0.5c0.1,0,0.1-0.1,0.2-0.1c0.1-0.2,0.1-0.2,0.1-0.4c-0.1-0.3-0.7-1.8-1.3-3.5
					c-0.3-0.8-0.6-1.6-1-2.5h-6.1l-2.6,6c0,0.1,0,0.1,0,0.1c0.1,0.2,0.1,0.3,0.3,0.4l0.4,0.1c0.2,0.1,0.4,0.3,0.4,0.5
					c0,0.2-0.2,0.4-0.5,0.4H205.1z M207.3,55.2c0-0.1,0-0.2,0-0.3c0,0,0-0.1,0-0.1c-0.1,0.1-0.2,0.3-0.3,0.4H207.3z M222,55.1
					c-0.2-0.2-0.4-0.5-0.5-0.8c0,0-0.1-0.2-0.2-0.4c-0.2-0.4-0.4-1.1-0.9-2c-0.3-0.6-0.5-1.2-0.8-1.9c-0.6-1.4-1.3-3.1-1.9-4.7
					c-0.1-0.4-0.3-0.7-0.5-1.1c-0.4-0.9-0.8-1.9-1.2-2.8c-0.4-1-0.9-2.1-1.3-3.2l-0.5,1.1c0.2,0,0.3,0.1,0.4,0.3l0.1,0.2
					c0.1,0.4,0.3,0.8,0.5,1.3c0.1,0.3,0.2,0.6,0.4,1l0.5,1.1c0.4,1.1,1,2.3,1.5,3.6l0,0c0.1,0.1,0.2,0.3,0.1,0.5
					c-0.1,0.1-0.2,0.2-0.3,0.3h0.2c0.2,0,0.3,0.1,0.4,0.3l0.1,0.2l2.5,6.3c0.1,0.3,0.1,0.5,0.1,0.7H222z M210.5,47.5
					c0,0,0.3,0,0.3,0c-0.1,0-0.2-0.1-0.2-0.1L210.5,47.5z M216.2,46.4c-0.3-0.8-0.7-1.6-1-2.3c-0.3-0.6-0.5-1.2-0.7-1.7
					c-0.1-0.2-0.4-0.8-0.4-0.9l-2.2,5H216.2z"/>
				<path class="st4" d="M223.6,55.7h-4.2v-0.1c0,0,0.3-0.1,0.4-0.3c0.1-0.2,0.2-0.4,0.1-0.7c-0.1-0.4-1.3-3.2-2.4-6.2v-0.1h-6.8
					l-2.7,6.3c-0.1,0.1,0,0.3,0,0.4c0.1,0.3,0.2,0.5,0.6,0.7l0.4,0.1h-4l0.4-0.1c0.8-0.3,1.2-0.8,1.6-1.7l8-17.6l0.1,0.2
					c0.6,1.6,1.3,3,1.8,4.5c0.6,1.4,1.2,2.7,1.7,4c0.9,2.4,2,4.8,2.7,6.6c0.5,1.4,0.9,2.3,1,2.4c0.5,1,1.4,1.6,1.5,1.6L223.6,55.7z
					 M219.8,55.6h3.5c-0.3-0.2-0.9-0.7-1.3-1.5c-0.1-0.2-0.4-1.2-1-2.4c-0.7-1.8-1.8-4.2-2.7-6.6c-0.5-1.3-1-2.6-1.7-4
					c-0.5-1.4-1.2-2.8-1.8-4.3L207,54.1c-0.3,0.7-0.7,1.3-1.3,1.6h2.4c-0.3-0.2-0.4-0.4-0.4-0.7c0-0.2-0.1-0.3,0-0.5l2.8-6.4h7
					l0.1,0.2c1.3,3.1,2.3,5.8,2.5,6.3c0.1,0.5,0,0.8-0.2,0.9C219.9,55.5,219.9,55.5,219.8,55.6 M217.2,47.1H211l3.2-7.3l0.1,0.2
					c0.2,0.6,0.5,1.4,0.8,2.2c0.5,1.3,1.3,2.9,2,4.8L217.2,47.1z M211.2,46.9h5.8c-0.7-1.8-1.5-3.5-2-4.7c-0.3-0.7-0.6-1.4-0.8-2
					L211.2,46.9z"/>
				<path class="st4" d="M241.9,56.5c-0.1,0-0.3-0.1-0.4-0.2l-14.1-16V46c0,2.4,0.1,5,0.1,6.6c0,0.7,0,1.3,0,1.5
					c0.1,0.8,0.4,1.1,0.5,1.1c0.3,0,0.5,0.2,0.5,0.5c0,0.3-0.2,0.5-0.5,0.5h-2.8c-0.2,0-0.4-0.1-0.5-0.4c-0.1-0.2,0-0.4,0.2-0.5
					c0.4-0.2,0.5-0.5,0.7-0.9V38.9c0-1.4-0.9-1.8-1.3-1.9c-0.1,0-0.1,0-0.2-0.1c-0.2-0.1-0.3-0.3-0.3-0.5c0.1-0.2,0.2-0.4,0.5-0.4
					h3.5c0.2,0,0.4,0.2,0.5,0.4c0.6,0.7,3.5,4.1,6.5,7.4c1.7,1.9,3.7,4.1,5.8,6.6v-4.7c0-2,0-4.1-0.1-5.6c0-0.8,0-1.4,0-1.8
					c-0.1-1.1-0.5-1.3-0.7-1.3c-0.2-0.1-0.3-0.3-0.3-0.5c0.1-0.2,0.2-0.4,0.5-0.4h2.9c0.2,0,0.4,0.2,0.5,0.4s-0.1,0.5-0.3,0.5
					c-0.6,0.2-0.7,0.7-0.7,1.1V56c0,0.2-0.1,0.4-0.3,0.4C242.1,56.4,242,56.5,241.9,56.5z"/>
				<path class="st4" d="M227.9,36.6c0,0,3.2,3.8,6.6,7.5c2,2.2,4.2,4.7,6.6,7.5c0-2.1,0-4.1,0-6c0-3.1-0.1-6.4-0.1-7.3
					c-0.1-1.2-0.5-1.6-0.9-1.8h2.9c-0.7,0.2-1,0.8-1,1.6V56L227,39c0,2.6,0,4.9,0,7c0,3.6,0.1,7.3,0.1,8.1c0.1,1.3,0.7,1.6,0.9,1.6
					h-2.8l0,0c0.5-0.3,0.7-0.7,0.9-1.3V38.9c0-2-1.5-2.3-1.7-2.4h3.5V36.6z"/>
				<path class="st4" d="M242,56.6c-0.1,0-0.2,0-0.3-0.1l-0.1-0.1l-14-15.8v13.6c0,0.5,0.2,0.9,0.6,1.1l0.3,0.1
					c0.2,0.1,0.4,0.3,0.3,0.5c0,0.2-0.2,0.4-0.5,0.4h-3.1c-0.3,0-0.5-0.2-0.5-0.5v-0.1c0-0.2,0.1-0.3,0.2-0.4
					c0.4-0.2,0.5-0.5,0.7-0.9V38.9c0-0.6-0.1-1-0.4-1.3c-0.1-0.1-0.3-0.2-0.5-0.3c-0.1,0-0.1-0.1-0.2-0.2c0,0,0,0,0,0
					c-0.1,0-0.1,0-0.2,0l-0.3-0.1c-0.2-0.1-0.4-0.3-0.3-0.5c0-0.2,0.2-0.4,0.5-0.4h4c0.2,0,0.4,0.1,0.4,0.3c0,0.1,0,0.1,0,0.2
					c0.3,0.4,0.9,1.1,1.8,2c0.6,0.7,1.4,1.6,2.2,2.5c0.2,0.3,0.5,0.6,0.8,0.9c0.5,0.6,1.1,1.1,1.5,1.8l0.8,0.9
					c0.6,0.7,1.2,1.4,1.9,2.1c0.9,1.1,1.9,2.2,2.9,3.3v-4.5c0-2.1,0-4.2-0.1-5.6c0-0.8,0-1.4,0-1.7c-0.1-0.5-0.3-1-0.6-1.2l-0.2-0.1
					c-0.2-0.1-0.4-0.3-0.3-0.5c0-0.2,0.2-0.4,0.5-0.4h3.9c0.2,0,0.5,0.2,0.5,0.4c0,0.2-0.2,0.5-0.4,0.5l-0.6,0.1
					c-0.4,0.1-0.5,0.4-0.5,1l0.1,18c0,0.2-0.1,0.4-0.3,0.4C242.2,56.5,242.1,56.6,242,56.6z M226.7,55.3c-0.1-0.2-0.1-0.3-0.2-0.5
					c0,0.2-0.1,0.4-0.2,0.5H226.7z M241.4,54.4v-2.2c0,0,0,0-0.1,0c-0.1,0-0.1,0-0.2,0c-0.1,0-0.2,0-0.3-0.1l-0.1-0.1
					c-1.5-1.7-2.9-3.3-4.2-4.8l-2.4-2.7c-0.8-0.9-1.6-1.8-2.3-2.6c-0.5-0.6-1-1.2-1.5-1.7c-0.6-0.6-1.1-1.2-1.5-1.8
					c-0.6-0.7-0.9-1-1.1-1.2h-1.5c0.2,0.3,0.3,0.6,0.4,1c0.1-0.1,0.2-0.1,0.3-0.1h0.1c0.2,0,0.4,0.2,0.5,0.4L241.4,54.4z
					 M241.2,37.1c0.1,0.2,0.1,0.4,0.2,0.6c0-0.2,0.1-0.4,0.1-0.6H241.2z"/>
				<path class="st4" d="M242,56.1l-0.1-0.1l-14.9-16.7c0,2.5,0,4.7,0,6.8c0,2.5,0,5.1,0,6.7c0,0.7,0,1.2,0,1.4
					c0,0.7,0.3,1.3,0.8,1.6l0.3,0.1h-0.3h-2.8v-0.1l0,0c0.5-0.3,0.7-0.7,0.9-1.3V38.9c0-1.2-0.5-1.9-1.6-2.3h-0.1l-0.3-0.1h4
					l-0.1,0.1c0.3,0.3,2.1,2.4,4.2,4.8c0.7,0.8,1.6,1.7,2.3,2.6l0.8,0.9c1.7,1.9,3.6,4.1,5.6,6.4c0-2,0-4,0-5.8
					c0-3.2-0.1-6.4-0.1-7.3c-0.1-0.8-0.4-1.4-0.8-1.7l-0.3-0.1h3.9l-0.6,0.1c-0.9,0.2-0.9,1.2-0.9,1.5L242,56.1z M226.9,38.7
					l15,16.9V38.1c0-0.7,0.2-1.3,0.7-1.5h-2.3c0.4,0.3,0.6,0.8,0.7,1.7c0.1,0.9,0.1,4.1,0.1,7.3c0,1.8,0,3.9,0,6v0.2l-0.1-0.1
					c-2.1-2.4-4.1-4.6-5.8-6.5l-0.8-0.9c-0.8-0.9-1.6-1.8-2.3-2.6c-1.2-1.4-2.3-2.5-3-3.5c-0.8-0.9-1.2-1.3-1.3-1.4h-3
					c0.9,0.4,1.4,1.2,1.4,2.3v15.4c-0.1,0.5-0.3,0.9-0.7,1.3h2.3c-0.4-0.3-0.7-0.8-0.7-1.6c0-0.2,0-0.7,0-1.4c0-1.6,0-4.2,0-6.7
					c0-2.1,0-4.5,0-7v-0.4H226.9z"/>
				<path class="st4" d="M252.4,56.1c-0.5,0-1.2,0-1.8-0.1c-1.3-0.1-2.8-0.2-4.3-0.2h-1.3l-0.1,0c-0.1,0-0.2,0.1-0.2,0.1
					c-0.1,0-0.2,0-0.3-0.1l-0.1-0.1c-0.1-0.1-0.2-0.3-0.1-0.5c0.1-0.2,0.2-0.3,0.4-0.3h0.1c0.3-0.2,0.4-0.4,0.6-0.7v-16
					c0-0.4-0.2-0.9-0.3-0.9c-0.1,0-0.3-0.1-0.3-0.3c-0.1-0.1-0.1-0.3,0-0.4l0.1-0.2c0.1-0.2,0.2-0.3,0.4-0.3c0.8,0,1.5,0,2.2-0.1
					c0.7-0.1,1.4-0.1,2-0.1c0.6,0,1.2,0,1.6,0l0.8,0c7,0,11.7,4.1,11.7,10.1C263.4,52.2,259.1,56.1,252.4,56.1z M248.5,54.1
					c0.6,0.1,2.6,0.4,4.2,0.4c1.4,0,8.1-0.4,8.1-7.6c0-5.9-5-9-10-9c-0.8,0.1-1.7,0.1-2.2,0.2c0,0-0.1,0-0.1,0v15.8
					C248.4,53.9,248.4,54,248.5,54.1z"/>
				<path class="st4" d="M244.8,55.5c0.5-0.3,0.8-0.6,1-1.2v-7.7c0-3.9,0-8,0-8.4s-0.2-1.3-0.7-1.4l0.1-0.2c0.8,0,1.6,0,2.3-0.1
					c1.3-0.1,2.7,0,3.6-0.1c0.2,0,0.5,0,0.7,0c6.8,0,11.2,4,11.2,9.6c0,5.4-3.7,9.6-10.6,9.6c-0.5,0-1.2,0-1.7-0.1
					c-1.4-0.1-2.8-0.2-4.4-0.2c-0.6,0-1.2,0-1.7,0L244.8,55.5z M247.9,37.6c0,0,0,4,0,8c0,2.3,0,4.9,0,7.8c0,0.2,0,0.4,0,0.5
					c0.1,0.3,0.1,0.5,0.3,0.6c0.4,0.1,2.6,0.4,4.4,0.4c1.7,0,8.6-0.5,8.6-8.1c0-6.4-5.4-9.5-10.5-9.5
					C249.5,37.5,247.8,37.6,247.9,37.6"/>
				<path class="st4" d="M252.4,56.3c-0.5,0-1.2,0-1.8-0.1l-0.7,0c-1.3-0.1-2.4-0.2-3.6-0.2h-2.1c-0.2,0-0.4-0.2-0.5-0.4
					c0-0.2,0.1-0.5,0.3-0.5l0.5-0.2c0.4-0.2,0.6-0.4,0.6-0.8l0-7.7v-8.4c0-0.3-0.2-0.7-0.3-0.8l0,0c-0.2,0-0.3-0.1-0.4-0.2
					c-0.1-0.1-0.1-0.3-0.1-0.4l0.1-0.3c0.1-0.2,0.2-0.3,0.5-0.3h4.1c0.7,0,1.4,0,1.8-0.1c0,0,0.1,0,0.1,0h0.8
					c7,0,11.7,4.1,11.7,10.2C263.4,52.3,259.1,56.3,252.4,56.3z M246.2,55c0.6,0,1.1,0,1.7,0c-0.4-0.2-0.5-0.6-0.6-0.8
					c0-0.1,0-0.1,0-0.2c0,0,0-0.1,0-0.2V37.5c0-0.1,0-0.2,0.1-0.3H246c0.1,0.3,0.2,0.6,0.2,0.9v16.1c0,0.3-0.1,0.6-0.3,0.8
					C246,55,246.1,55,246.2,55z M248.4,53.9c0.6,0.1,2.6,0.4,4.1,0.4c1.3,0,8-0.4,8-7.5c0-5.9-5-8.9-9.9-8.9
					c-0.7,0.1-1.7,0.2-2.3,0.2v15.7C248.4,53.8,248.4,53.9,248.4,53.9z M255.5,37.6c3.5,1.4,6.3,4.5,6.3,9.1c0,2.5-0.7,4.2-1.6,5.5
					c1.4-1.5,2.1-3.6,2.1-6c0-2.6-1-4.8-2.9-6.5C258.4,38.7,257,38,255.5,37.6z"/>
				<path class="st4" d="M252.4,55.9c-0.5,0-1.2,0-1.7-0.1c-1.7-0.1-3-0.2-4.4-0.2c-0.6,0-1.2,0-1.7,0h-0.4l0.5-0.2
					c0.5-0.2,0.8-0.5,0.9-1.2v-7.7c0-2.9,0-6,0-7.4c0-0.5,0-0.8,0-0.9c0-0.4-0.2-1.2-0.7-1.3h-0.1l0.1-0.3h0.1c0.4,0,0.7,0,1.2,0
					c0.4,0,0.7,0,1.2,0c0.5,0,1,0,1.7,0c0.7,0,1.5,0,1.9-0.1c0.1,0,0.2,0,0.4,0c0.1,0,0.3,0,0.4,0c6.7,0,11.2,3.9,11.2,9.7
					C263,52.1,258.8,55.9,252.4,55.9 M246.2,55.5c1.4,0,2.7,0.1,4.4,0.2c0.6,0.1,1.2,0.1,1.7,0.1c6.4,0,10.5-3.8,10.5-9.6
					c0-2.8-1-5.1-3-6.9c-2-1.8-4.8-2.6-8.1-2.6c-0.1,0-0.2,0-0.4,0c-0.1,0-0.3,0-0.4,0c-0.5,0-1.2,0.1-1.9,0.1c-0.5,0-1,0-1.7,0
					c-0.4,0-0.7,0-1.2,0c-0.3,0-0.7,0-1.2,0l0,0c0.5,0.2,0.7,0.9,0.7,1.4c0,0.1,0,0.4,0,0.9c0,1.5,0,4.5,0,7.4v7.7
					c-0.1,0.6-0.4,0.9-0.9,1.2C245.4,55.5,245.8,55.5,246.2,55.5 M252.6,55c-1.7,0-4-0.3-4.4-0.4c-0.3-0.1-0.3-0.4-0.4-0.7
					c0-0.2,0-0.4,0-0.6c0-2.9,0-5.5,0-7.8c0-3.6,0-7.3,0-7.8l0,0v-0.1c0,0,0-0.1,0.1-0.1l0,0l0,0c0.1,0,0.4,0,0.9-0.1
					c0.5,0,1.3-0.1,1.9-0.1c5.2,0,10.6,3.2,10.6,9.5C261.3,54.6,254.1,55,252.6,55 M247.9,37.6c0,0.2,0,0.8,0,2.4c0,1.5,0,3.5,0,5.4
					c0,2.3,0,4.9,0,7.8c0,0.2,0,0.4,0,0.5c0.1,0.3,0.1,0.5,0.3,0.5c0.4,0.1,2.6,0.4,4.3,0.4c1.5,0,8.5-0.4,8.5-8
					c0-6.2-5.2-9.4-10.4-9.4C249.6,37.5,248.2,37.6,247.9,37.6"/>
				<path class="st4" d="M264.4,56.1c-0.3,0-0.5-0.2-0.5-0.5v-0.2c0-0.3,0.3-0.5,0.5-0.5c0,0,0,0,0.1,0c0.4,0,0.5-0.1,0.6-0.4
					c0,0,0-0.1,0-0.2c0-0.1,0-0.2,0.1-0.3V37.9c0-0.1-0.1-0.3-0.2-0.4c-0.2-0.2-0.2-0.4-0.6-0.4c-0.4,0-0.6-0.2-0.6-0.6
					c0-0.1,0.1-0.2,0.1-0.3l0.1-0.1c0.1-0.1,0.2-0.1,0.3-0.1c0.1,0,0.3,0,0.7,0c1.1,0.1,3.3,0.2,6.4,0.2h2.9c0.5,0,0.8-0.1,1-0.3
					c0.1-0.1,0.3-0.2,0.5-0.1c0.2,0.1,0.3,0.2,0.3,0.4l0.2,2.9c0,0.2-0.1,0.4-0.3,0.5c-0.2,0.1-0.4,0-0.6-0.2
					c-0.1-0.1-0.1-0.2-0.2-0.3c-0.2-0.4-0.4-1-1.3-1c-0.3,0-0.6,0-0.9,0c-0.3,0-0.7-0.1-1.2-0.1h-4.1v6.3h5.2c0.6,0,1-0.3,1.2-0.8
					c0.1-0.2,0.3-0.3,0.5-0.3c0.2,0.1,0.4,0.2,0.4,0.5v3.1c0,0.2-0.2,0.5-0.4,0.5c-0.3,0-0.5-0.1-0.5-0.4c-0.1-0.5-0.2-0.8-1.3-0.8
					h-5V54h5.5c1.1,0,1.8-0.3,2.4-1.7c0.1-0.2,0.4-0.4,0.6-0.3c0.2,0.1,0.4,0.3,0.3,0.6l-0.7,3c-0.1,0.2-0.2,0.4-0.5,0.4h-0.1
					c-0.1,0-0.1,0-0.2,0c-0.2-0.1-1.1-0.1-1.4-0.1l-7.5,0.1c-0.3,0-0.8,0-1.3,0.1L264.4,56.1z M266,37C266,37,266,37,266,37
					c0.2,0.3,0.3,0.6,0.3,0.9v16.3c0,0.1,0,0.1,0,0.2c0,0.1,0,0.1-0.1,0.2c0,0.1-0.1,0.3-0.1,0.4c0,0,0,0,0,0.1c0.2,0,0.5,0,0.7,0
					l6.3-0.1h-4.9c-0.4,0-0.8-0.3-0.8-0.8v-8.6c0-0.2,0.2-0.4,0.4-0.5c-0.3,0-0.5-0.2-0.5-0.5v-7c0-0.1,0-0.2,0.1-0.3
					c0-0.1,0.1-0.3,0.3-0.3C266.9,37,266.4,37,266,37z M274.2,55c0.4,0,0.9,0,1.3,0l0.1-0.5C275.2,54.8,274.7,54.9,274.2,55z
					 M273.5,45.1c0.4,0,0.7,0.1,1,0.2v-0.5C274.2,45,273.8,45.1,273.5,45.1z M274.5,37.1c0.4,0.1,0.8,0.2,1,0.4l0-0.5
					C275.2,37.1,274.9,37.1,274.5,37.1L274.5,37.1z M267.3,37.5C267.3,37.5,267.3,37.5,267.3,37.5C267.3,37.5,267.3,37.5,267.3,37.5
					z"/>
				<path class="st4" d="M264.5,55.5c0.6,0,0.8-0.3,1-0.6c0.1-0.2,0.1-0.4,0.2-0.6V37.9c0-0.2-0.1-0.4-0.2-0.6
					c-0.2-0.3-0.4-0.6-1-0.6c-0.1,0-0.1,0-0.1-0.1l0.1-0.1c0.4,0,2.9,0.2,7.1,0.2c0.8,0,1.9,0,2.9,0c0.5,0,1-0.1,1.4-0.4l0.2,2.9
					c-0.2-0.3-0.4-1.5-1.8-1.6c-0.6,0-1.3-0.1-2.1-0.1c-1,0-2.3,0-4.5,0c0,0.1-0.1,0.2-0.1,0.2v7h5.6c1.2,0,1.6-0.8,1.7-1l0,3.1
					c-0.1-0.5-0.2-1.2-1.8-1.2c-0.5,0-1.2,0-1.9,0c-1.4,0-2.9,0-3.6,0v8.6c0,0.2,0.2,0.3,0.3,0.3h5.6c1.4,0,2.2-0.4,2.8-2l-0.7,3
					h-0.1c-0.3-0.1-1.2-0.1-1.6-0.1l-7.5,0.1c-0.3,0-0.8,0-1.4,0.1c-0.3,0-0.5,0-0.8,0v-0.2C264.4,55.6,264.4,55.5,264.5,55.5"/>
				<path class="st4" d="M264.5,56.2c-0.1,0-0.2-0.1-0.3-0.1l-0.1-0.1c-0.1-0.1-0.3-0.3-0.2-0.6c0-0.1,0.1-0.1,0.2-0.2
					c0.1-0.1,0.3-0.2,0.5-0.2c0.1,0,0.1,0,0.2,0c0.1,0,0.1-0.1,0.2-0.1c0,0,0.1-0.1,0.1-0.2c0-0.1,0-0.2,0-0.4V38
					c0-0.1-0.1-0.3-0.2-0.4c-0.1-0.2-0.2-0.3-0.5-0.3c-0.3,0-0.6-0.2-0.6-0.6v-0.2c0-0.3,0.2-0.5,0.5-0.5c0.1,0,0.2,0,0.5,0
					c0.6,0,1.6,0.1,3.1,0.1c1.1-0.1,2.3-0.2,3.6-0.4l3,0c0.3,0,0.6-0.1,1-0.3c0.1-0.1,0.2-0.1,0.3-0.1c0.1,0,0.1,0,0.2,0.1
					c0.2,0.1,0.3,0.2,0.3,0.4l0,1.1l0.2,2.7c0,0.2-0.1,0.4-0.3,0.5c0,0-0.1,0-0.2,0c-0.2,0-0.3-0.1-0.4-0.2l-0.2-0.3
					c0-0.1-0.1-0.1-0.1-0.2c0,0,0-0.1-0.1-0.1l-0.1-0.1c-0.2-0.4-0.4-0.9-1.2-1l-5.8,0v5.8h5.3c0.2,0,0.5,0,0.6-0.1
					c0,0,0-0.1,0.1-0.1c0-0.2,0.2-0.3,0.3-0.4l0,0c0.1-0.1,0.1-0.1,0.2-0.1c0.1-0.1,0.2-0.1,0.3-0.1c0,0,0.1,0,0.1,0
					c0.2,0.1,0.3,0.3,0.3,0.5l-0.1,2.3c0,0.1-0.1,0.3-0.2,0.4l0,1.1c0,0.2-0.2,0.4-0.4,0.5c0,0,0,0,0,0c-0.2,0-0.4-0.2-0.5-0.4
					l-0.1-0.5c-0.1-0.3-0.2-0.7-1.3-0.7c-0.4,0-0.9,0-1.3,0c-0.5,0-1.1,0-1.6,0c-0.5,0-1,0-1.4,0h-0.4V54l5.6-0.1
					c0.6,0,1-0.1,1.3-0.2c0.3-0.3,0.5-0.7,0.8-1.3c0.1-0.2,0.2-0.3,0.5-0.3h0.1c0.1,0,0.3,0.1,0.4,0.2c0.1,0.1,0.1,0.2,0.1,0.4
					l0,0.2c0,0.1,0,0.2,0,0.3l-0.1,0.6l-0.3,1.9c0,0.2-0.2,0.4-0.5,0.4h-0.1c-0.1,0-0.1,0-0.2,0c-0.2-0.1-1-0.1-1.4-0.1l-7.5,0.1
					c-0.3,0-0.8,0-1.3,0.1c0,0-0.1,0-0.1,0H264.5z M266.1,37.2c0,0.1,0.1,0.2,0.1,0.3c0,0.1,0,0.2,0.1,0.2c0,0.1,0,0.1,0,0.2v16.3
					c0,0.3-0.1,0.5-0.2,0.7c0.2,0,0.5,0,0.6,0l0.5,0c-0.1-0.1-0.2-0.3-0.2-0.5v-8.5c0-0.1,0-0.2,0.1-0.3v-0.3c0,0,0-0.1,0-0.1
					c-0.1-0.1-0.1-0.2-0.1-0.3v-7.1c0-0.1,0-0.2,0.1-0.3v-0.3c-0.2,0-0.4,0-0.5,0C266.5,37.2,266.3,37.2,266.1,37.2z M275.5,54.8
					l0.1-0.3c-0.1,0.1-0.2,0.2-0.4,0.2C275.2,54.8,275.4,54.8,275.5,54.8z"/>
				<path class="st4" d="M275.9,55.7h-0.1c-0.3-0.1-1-0.1-1.6-0.1l-7.5,0.1c-0.3,0-0.8,0-1.4,0.1c-0.3,0-0.5,0-0.8,0l0,0l-0.1-0.1
					c-0.1-0.1-0.1-0.1,0-0.1c0-0.1,0.1-0.1,0.1-0.1c0.5,0,0.7-0.2,0.9-0.5c0.1-0.2,0.1-0.4,0.1-0.6V38c0-0.2-0.1-0.4-0.2-0.6
					c-0.2-0.3-0.4-0.5-0.9-0.5c0,0-0.1,0-0.1-0.1v-0.1l0,0v-0.1l0,0l0,0c0.3,0,2.8,0.2,7.1,0.2c0.8,0,1.9,0,2.9,0
					c0.5,0,1-0.1,1.3-0.4l0.1-0.1l0.2,3.5l-0.2-0.3c0,0,0-0.1-0.1-0.2c-0.2-0.4-0.5-1.3-1.7-1.4h-0.1c-0.6,0-1.2,0-1.9,0
					c-0.4,0-0.8,0-1.4,0c-0.7,0-1.8,0-3,0v0.1V38v6.9h5.5c0.9,0,1.4-0.6,1.5-0.8c0-0.1,0.1-0.1,0.1-0.1l0.1-0.1l-0.1,3.7l-0.1-0.5
					c-0.1-0.4-0.3-1-1.8-1c-1.2-0.1-3,0-4.3,0c-0.4,0-0.7,0-0.9,0v8.5c0,0.1,0.1,0.2,0.3,0.2h5.6c1.5,0,2.2-0.5,2.7-2h0.1
					L275.9,55.7z M264.8,36.6c0.4,0.1,0.6,0.3,0.7,0.6c0.1,0.2,0.1,0.4,0.2,0.6v16.3c0,0.2-0.1,0.4-0.2,0.6
					c-0.2,0.3-0.4,0.5-0.8,0.6c0.2,0,0.4,0,0.6,0c0.5-0.1,1-0.1,1.4-0.1l7.5-0.1c0.1,0,1,0,1.6,0.1l0.5-2.3c-0.5,1-1.4,1.4-2.6,1.4
					h-5.6c-0.2,0-0.4-0.2-0.4-0.4v-8.7h0.1c0.2,0,0.6,0,1,0c1.4,0,3.2-0.1,4.3,0l0,0c1.2,0,1.6,0.3,1.8,0.7l0.1-2.3
					c-0.2,0.3-0.6,0.8-1.6,0.8h-5.8v-7.1v-0.1c0,0,0-0.1,0-0.2V37h0.1c1.3,0,2.3,0,3,0c0.5,0,0.9,0,1.4,0c0.7,0,1.3,0,1.9,0h0.1
					c1,0.1,1.5,0.8,1.7,1.3l-0.1-2.4c-0.3,0.2-0.7,0.4-1.3,0.4c-1,0-2,0-2.9,0C268.1,36.8,265.8,36.7,264.8,36.6"/>
				<path class="st4" d="M287.1,56.6c-5.4,0-8.5-2.8-8.7-7.6c-0.1-0.9-0.1-1.8-0.1-2.7c0-0.8,0-1.6-0.1-2.4c0-1.8,0-3.6-0.1-4.8
					c0-0.6,0-1,0-1.2c0-0.3-0.1-0.7-0.7-0.9c-0.2-0.1-0.4-0.3-0.3-0.5c0-0.2,0.2-0.4,0.5-0.4c0,0,2.6,0.1,2.6,0.1l1.9,0
					c0.2,0,0.4,0.2,0.5,0.4c0.1,0.2-0.1,0.4-0.3,0.5l-0.6,0.3c-0.1,0.1-0.4,0.4-0.4,1v11c0,1.1,0.4,2.3,1,3.2
					c1.1,1.4,2.8,2.1,5.2,2.1c1.9,0,3.4-0.7,4.5-1.8c1-1.1,1.6-2.6,1.5-4.2l-0.1-10.1c0-0.6-0.1-1.5-0.9-1.5c-0.3,0-0.5-0.2-0.5-0.5
					c0-0.3,0.2-0.5,0.5-0.5h3.6c0.3,0,0.5,0.2,0.5,0.4c0,0.3-0.2,0.5-0.4,0.5c-0.4,0.1-0.7,0.3-0.7,0.7c-0.1,0.3-0.1,0.6-0.1,0.8
					l0.1,10.1C295.5,52.5,293.3,56.6,287.1,56.6z"/>
				<path class="st4" d="M280.2,36.6h1.9c-0.2,0.1-0.4,0.2-0.6,0.3c-0.3,0.2-0.6,0.7-0.6,1.5c0,0.8,0,3.6,0,6.1v4.9
					c0,1.3,0.4,2.5,1.2,3.5c1.4,1.8,3.5,2.3,5.5,2.3c4.5-0.1,6.6-3.2,6.5-6.5l-0.1-10c0-0.9-0.3-2-1.4-2h3.6c-0.7,0.1-1,0.5-1.2,1
					c-0.1,0.3-0.1,0.6-0.1,0.9l0.1,10.1c0,3.9-2.3,7.3-7.8,7.3c-4.7,0-8.1-2.2-8.3-7.1c-0.1-1.9,0-3.6-0.1-5.1c0-2.6-0.1-5.3-0.1-6
					c0-0.7-0.4-1.2-1-1.4L280.2,36.6z"/>
				<path class="st4" d="M287.1,56.6c-5.4,0-8.6-2.8-8.8-7.6l0-5.1c0-1.8,0-3.7-0.1-4.8l0-1.1c0-0.4-0.1-0.7-0.8-0.9l-0.4-0.3
					c-0.2-0.1-0.3-0.3-0.2-0.5c0.1-0.2,0.2-0.3,0.5-0.3c0,0,2.9,0.1,2.9,0.1l2.4,0c0.2,0,0.4,0.2,0.5,0.4c0,0.2-0.1,0.5-0.4,0.5
					l-0.4,0.1l-0.5,0.3c-0.2,0.2-0.4,0.5-0.4,1v11c0,1.1,0.4,2.3,1,3.2c1.1,1.4,2.7,2,5.2,2c1.7,0,3.3-0.6,4.4-1.7l0.1-0.1
					c0.8-1,1.3-2.1,1.4-3.4l0,0c0-0.2,0-0.4,0-0.6c0,0-0.1-10.1-0.1-10.1c0-0.4-0.1-1.4-0.8-1.4c-0.3,0-0.5-0.2-0.5-0.5v-0.1
					c0-0.3,0.2-0.5,0.5-0.5h3.6c0.3,0,0.5,0.2,0.5,0.5v0.1c0,0.2-0.2,0.4-0.4,0.5c-0.3,0.1-0.6,0.2-0.7,0.6
					c-0.1,0.3-0.1,0.6-0.1,0.8l0.1,10.1c0,2.2-0.7,4.1-2,5.6C291.9,55.8,289.8,56.6,287.1,56.6z M279,37.2c0.1,0.2,0.2,0.4,0.2,0.6
					l0,1.1c0,0.5,0,1.2,0,1.9c0,0.9,0.1,1.9,0.1,2.9v5.1c0.1,3,1.6,5.1,4.1,6c-0.8-0.4-1.5-0.9-2-1.6c-0.8-1-1.3-2.4-1.3-3.8v-11
					c0-0.5,0.1-1,0.3-1.3H280L279,37.2z M294.1,37.1c0.1,0.2,0.2,0.4,0.2,0.6c0-0.1,0-0.2,0.1-0.3c0-0.1,0.1-0.2,0.1-0.3H294.1z"/>
				<path class="st4" d="M287.1,56.1c-5.1,0-8.2-2.6-8.4-7.1c0-1.2,0-2.3,0-3.3c0-0.6,0-1.3,0-1.8c0-1.8,0-3.8-0.1-4.8
					c0-0.5,0-0.9,0-1c0-0.6-0.3-1-1-1.4l-0.3-0.2l2.9,0.1h2.4l-0.4,0.1c-0.2,0.1-0.4,0.2-0.6,0.3c-0.2,0.2-0.6,0.6-0.6,1.4
					c0,0.3,0,0.8,0,1.5c0,1.3,0,2.9,0,4.6v4.9c0,1.3,0.4,2.5,1.2,3.5c1.2,1.5,2.9,2.2,5.5,2.2c2,0,3.7-0.7,4.8-1.9
					c1-1.2,1.7-2.7,1.6-4.5l-0.1-10c0-0.7-0.2-1.9-1.3-1.9v-0.1h3.6v0.1c-0.5,0.1-0.9,0.4-1,0.9c-0.1,0.3-0.1,0.6-0.1,0.9l0.1,10.1
					c0,2.1-0.6,3.9-1.9,5.2C291.7,55.3,289.7,56.1,287.1,56.1 M277.9,36.6c0.4,0.2,0.7,0.6,0.8,1.3c0,0.2,0,0.5,0,1
					c0,1.2,0.1,3,0.1,4.8c0,0.6,0,1.2,0,1.8c0,1,0,2.2,0,3.3c0.2,4.5,3.1,7,8.2,7c7.2,0,7.8-5.5,7.8-7.2l-0.1-10.1
					c0-0.3,0-0.6,0.1-0.9c0.1-0.4,0.3-0.7,0.6-0.9h-2.4c0.7,0.4,0.8,1.3,0.8,1.9l0.1,10c0.1,1.8-0.5,3.5-1.7,4.6
					c-1.2,1.3-2.9,2-4.9,2c-2.6,0-4.4-0.7-5.6-2.2c-0.7-0.9-1.2-2.2-1.2-3.5v-4.9c0-1.7,0-3.3,0-4.6c0-0.7,0-1.3,0-1.5
					c0-0.8,0.4-1.4,0.6-1.6c0.1-0.1,0.2-0.1,0.3-0.2H280L277.9,36.6z"/>
				<path class="st4" d="M301.1,56c0,0-0.1,0-0.1,0c-0.4-0.1-1-0.1-1.2-0.1c-0.3,0-0.8,0-1.3,0.1l-0.9,0c-0.1,0-0.2,0-0.3-0.1
					c-0.1,0-0.2-0.1-0.3-0.3c-0.1-0.2,0-0.4,0.1-0.6c0.1-0.1,0.2-0.1,0.3-0.1c0.4,0,0.5-0.1,0.6-0.4c0,0,0-0.1,0-0.2
					c0-0.1,0-0.2,0.1-0.3V37.9c0-0.1-0.1-0.3-0.2-0.4c-0.2-0.2-0.2-0.4-0.6-0.4c-0.4,0-0.6-0.2-0.6-0.6c0-0.1,0.1-0.2,0.1-0.3
					l0.1-0.1c0.1-0.1,0.2-0.1,0.3-0.1c0,0,0,0,0.1,0c0.7,0.1,1.4,0.1,2.1,0.1c0.7,0,1.7,0,2.5-0.1c0.6,0,1,0,1.2,0
					c3.5,0,5.7,2.2,5.7,5.5c0,2.2-1.8,4-3.2,4.8c1,2.5,4.3,8,6.5,8.8c0.2,0.1,0.3,0.3,0.3,0.5c0,0.2-0.2,0.4-0.5,0.4h-0.4
					c-4.3,0-7.8-6.2-8.9-9l-1.7-0.1v7.2c0,0.5,0.3,0.8,0.8,0.8c0.4,0,0.6,0.2,0.6,0.6c0,0.1-0.1,0.2-0.1,0.3l-0.1,0.1
					c-0.1,0.1-0.2,0.1-0.3,0.1H301.1z M301.2,45.3c0.2,0,0.6,0.1,1.3,0.1c2.5,0,3.6-1.2,3.8-2.3c0.3-1.6,0.1-2.8-0.7-3.7
					c-1.1-1.3-3-1.5-3.8-1.5c-0.4,0-0.7,0.1-0.7,0.4V45.3z"/>
				<path class="st4" d="M297.5,55.5c0.6,0,0.8-0.3,1-0.6c0.1-0.2,0.1-0.4,0.2-0.6V37.9c0-0.2-0.1-0.4-0.2-0.6
					c-0.2-0.3-0.4-0.6-1-0.6c-0.1,0-0.1,0-0.1-0.1l0.1-0.1c0.7,0.1,1.5,0.1,2.2,0.1c1.2,0,3.2-0.1,3.8-0.1c2.9,0,5.2,1.7,5.2,5
					c0,2.2-2,4-3.3,4.5c0.7,2.2,4.4,8.6,6.9,9.5c-0.1,0-0.3,0-0.4,0c-4,0-7.4-6-8.6-9l-2.5-0.1v7.7c0,0.7,0.4,1.3,1.3,1.3
					c0.1,0,0.1,0,0.1,0.1l-0.1,0.1c-0.3,0-0.6,0-0.8,0c-0.4-0.1-1-0.1-1.4-0.1s-0.8,0-1.4,0.1c-0.3,0-0.5,0-0.8,0v-0.1
					C297.4,55.6,297.5,55.5,297.5,55.5 M300.7,38.2v7.4c0.2,0.1,0.6,0.2,1.8,0.2c2.8,0,4.1-1.5,4.3-2.7c0.8-4.4-2.3-5.8-4.9-5.8
					C301.1,37.4,300.7,37.7,300.7,38.2"/>
				<path class="st4" d="M301,56.1c0,0-0.1,0-0.1,0c-0.4-0.1-1-0.1-1.2-0.1c-0.3,0-0.8,0-1.3,0.1l-0.9,0c-0.1,0-0.2-0.1-0.3-0.1
					l-0.1-0.1c-0.1-0.1-0.3-0.3-0.2-0.6c0-0.1,0.1-0.2,0.3-0.2l0,0c0.1-0.1,0.2-0.1,0.3-0.1c0.3,0,0.4-0.1,0.5-0.3
					c0-0.1,0-0.2,0-0.4V37.9c0-0.1-0.1-0.3-0.2-0.4c-0.1-0.2-0.2-0.3-0.5-0.3c-0.3,0-0.6-0.2-0.6-0.6v-0.2c0-0.1,0.1-0.3,0.2-0.4
					c0.1-0.1,0.2-0.1,0.3-0.1c0,0,0,0,0.1,0c0.7,0.1,1.4,0.1,2.1,0.1c0.7,0,1.6,0,2.5-0.1l1.3,0c2.2,0,4,0.9,5,2.5
					c0.6,0.9,0.9,2,0.9,3.2c0,2.2-1.8,4-3.3,4.7c0.5,1.2,1.4,2.9,2.5,4.6c1.5,2.3,2.9,3.7,3.8,4l0.3,0.1c0.2,0.1,0.3,0.2,0.3,0.5
					c0,0.2-0.1,0.4-0.3,0.5l-0.3,0.1c0,0-0.1,0-0.2,0h-0.4c-3.9,0-7.5-5.3-9-9l-1.5-0.1v7.3c0,0.1,0,0.2,0.1,0.3
					c0.1,0.1,0.3,0.2,0.5,0.2c0.3,0,0.4,0.1,0.5,0.3l0,0c0.1,0.1,0.4,0.2,0.4,0.5c0,0.3-0.3,0.4-0.4,0.5c-0.1,0-0.1,0.1-0.2,0.1H301
					z M299.7,55c0.1,0,0.4,0,0.6,0c-0.1-0.2-0.2-0.5-0.2-0.9v-7.6c0-0.1,0.1-0.3,0.1-0.3c0,0,0.1-0.1,0.2-0.1
					c-0.1-0.1-0.1-0.2-0.1-0.3v-7.4c0-0.3,0.1-0.6,0.3-0.8c0-0.1,0.1-0.1,0.2-0.2c-0.3,0-0.7,0-0.9,0c-0.2,0-0.4,0-0.5,0
					c0,0.1,0.1,0.2,0.1,0.2c0,0.1,0,0.2,0.1,0.2c0,0.1,0.1,0.1,0.1,0.2v16.3c0,0.3-0.1,0.5-0.2,0.7C299.4,55,299.5,55,299.7,55z
					 M303.7,46.4c1.1,2.7,3.5,6.8,6.2,8.2c-2.4-2.5-4.6-7-5.1-8.2c0-0.1,0-0.1,0-0.2v-0.1C304.4,46.2,304.1,46.3,303.7,46.4
					C303.7,46.3,303.7,46.4,303.7,46.4z M301.3,45.1c0.3,0.1,0.7,0.1,1.2,0.1c2.5,0,3.5-1.2,3.7-2.2c0.3-1.6,0.1-2.8-0.6-3.6
					c-0.8-0.9-2.1-1.5-3.8-1.5c-0.2,0-0.4,0.1-0.5,0.2c0,0,0,0.1,0,0.1V45.1z M303.8,37.2c1.1,0.3,2,0.8,2.7,1.6
					c0.9,1.1,1.2,2.6,0.8,4.6c-0.1,0.2-0.1,0.4-0.2,0.6c0.5-0.7,0.9-1.5,0.9-2.4c0-1-0.2-1.9-0.7-2.6
					C306.7,37.9,305.4,37.3,303.8,37.2z"/>
				<path class="st4" d="M302,55.7L302,55.7c-0.3,0-0.6,0-0.9,0c-0.4-0.1-1-0.1-1.4-0.1s-0.8,0-1.4,0.1c-0.3,0-0.5,0-0.8,0l0,0
					l-0.1-0.1c-0.1-0.1-0.1-0.1,0-0.1l0.1-0.1c0.5,0,0.7-0.2,0.9-0.5c0.1-0.2,0.1-0.4,0.1-0.6V37.9c0-0.2-0.1-0.4-0.2-0.6
					c-0.2-0.3-0.4-0.5-0.9-0.5c0,0-0.1,0-0.1-0.1v-0.1l0,0v-0.1l0,0l0,0c0.7,0.1,1.5,0.1,2.2,0.1s1.7,0,2.5-0.1c0.5,0,1,0,1.3,0
					c3.2,0,5.3,2,5.3,5.1c0,2.2-2,4-3.3,4.5c0.4,1,1.5,3.1,2.7,5.1c1.6,2.3,3,3.9,4.1,4.2l0.3,0.1l-0.3,0.1c-0.1,0-0.3,0-0.4,0
					c-3.8,0-7.3-5.5-8.7-9l-2.4-0.1v7.6c0,0.7,0.4,1.2,1.2,1.2c0.1,0,0.1,0,0.1,0.1C302.1,55.6,302.2,55.6,302,55.7L302,55.7z
					 M299.7,55.5c0.3,0,0.9,0,1.4,0.1c0.2,0,0.4,0,0.6,0c-0.6-0.1-1-0.6-1-1.3v-7.8l2.6,0.1l0,0c1.4,3.5,4.8,9,8.6,9h0.1
					c-2.6-1.3-6-7.5-6.7-9.4V46h0.1c1.4-0.5,3.3-2.3,3.3-4.4c0-3-2-4.9-5.1-4.9c-0.2,0-0.7,0-1.3,0c-0.8,0-1.8,0.1-2.5,0.1
					c-0.6,0-1.3,0-1.8-0.1c0.4,0.1,0.5,0.3,0.7,0.6c0.1,0.2,0.1,0.4,0.2,0.6v16.3c0,0.2-0.1,0.4-0.2,0.6c-0.2,0.3-0.4,0.5-0.8,0.6
					c0.2,0,0.4,0,0.6,0C298.8,55.5,299.4,55.5,299.7,55.5 M302.5,45.9c-0.8,0-1.5-0.1-1.8-0.2l0,0v-7.4c0-0.2,0.1-0.4,0.2-0.5
					c0.2-0.2,0.5-0.3,0.9-0.3c1.9,0,3.3,0.6,4.3,1.7c0.8,1,1,2.4,0.7,4.2C306.6,44.5,305.3,45.9,302.5,45.9 M300.8,45.5
					c0.3,0.1,0.9,0.2,1.7,0.2c2.7,0,4-1.4,4.2-2.6c0.3-1.7,0.1-3-0.7-4c-0.8-1-2.4-1.7-4.2-1.7c-0.4,0-0.7,0.1-0.8,0.3
					c-0.1,0.1-0.2,0.3-0.1,0.4V45.5z"/>
			</g>
			<polygon class="st4" points="327,72.5 258.4,72.5 258.4,72.3 326.7,72.3 326.7,55.5 327,55.5 			"/>
			<polygon class="st4" points="327,9.7 327,9.7 153,9.7 153,34.7 153.2,34.7 153.2,9.9 326.7,9.9 326.7,34.9 327,34.9 			"/>
			<polygon class="st4" points="215.1,72.5 153,72.5 153,55.1 153.2,55.1 153.2,72.3 215.1,72.3 			"/>
			<path class="st4" d="M259.8,70.4c-0.8-2-2.8-2.9-4.8-3.5c-6.3-1.9-12,0.6-17.8,2.8c-6.7,2.4-17.9,7.6-23.2,0.4
				c2.7,3.3,7.3,3.6,11.3,2.7c6.1-1.4,11.6-4.1,17.6-6c2.9-0.9,6.2-1.7,9.3-1.2C255.1,66.2,258.8,67.4,259.8,70.4"/>
			<path class="st4" d="M222.1,74c-3.1,0-6-0.9-8.1-3.7l0.1-0.1c3.2,4,8.9,3.2,11.2,2.7c3.8-0.8,7.3-2.2,10.9-3.6
				c2.2-0.8,4.4-1.7,6.7-2.4c3.7-1.3,6.6-1.6,9.3-1.2c4.3,0.6,6.9,2.2,7.7,4.6l-0.1,0.1c-0.6-1.6-2.2-2.7-4.7-3.5
				c-5.9-1.7-11.4,0.4-16.7,2.5c-0.3,0.1-0.6,0.2-1,0.4c-0.6,0.2-1.4,0.5-2.1,0.8C231.2,72.2,226.4,74,222.1,74 M216,72.1
				c5.1,3.7,13.1,0.7,19.1-1.6c0.7-0.3,1.5-0.5,2.1-0.8c0.3-0.1,0.6-0.2,0.9-0.4c5.3-2.1,11-4.2,16.8-2.5c1.7,0.5,2.8,1.2,3.8,2
				c-1.3-1.5-3.6-2.5-6.7-2.9c-2.7-0.4-5.6-0.1-9.2,1.2c-2.3,0.7-4.5,1.6-6.7,2.4c-3.6,1.4-7.1,2.7-10.9,3.6
				C223.4,73.4,219.2,74.1,216,72.1"/>
			<path class="st4" d="M258.5,72.5c-1.5-3.2-7.5-2.7-10.5-2.4c-7.5,1.3-14.6,4.7-22.4,5.4c-3.8,0.4-8.3,0-10.7-3.1
				c2.6,2.9,6.9,3.1,10.6,2.6c5.6-0.8,11.1-2.9,16.6-4.4c2.8-0.7,5.6-1.4,8.6-1.4C253.3,69.4,257.5,69.7,258.5,72.5"/>
			<path class="st4" d="M223.2,75.9c-4.7,0-7-1.8-8.3-3.3l0.1-0.1c2.2,2.4,5.8,3.2,10.6,2.6c3.9-0.5,7.6-1.7,11.3-2.8
				c1.8-0.5,3.6-1,5.3-1.6c3.2-0.8,5.9-1.4,8.6-1.4c3.1,0.1,6.8,0.6,7.7,3.2l-0.1,0.1c-1-2.2-4.5-3-10.4-2.4
				c-3.5,0.5-6.9,1.6-10.3,2.6c-4,1.2-8,2.4-12.1,2.9C224.8,75.7,223.9,75.9,223.2,75.9 M216.5,73.9c1.8,1.3,4.5,2.2,9.1,1.7
				c4.2-0.4,8.2-1.7,12.1-2.8c3.3-1,6.8-2.1,10.3-2.6c1.5-0.2,3.8-0.4,5.8-0.1c1.7,0.2,3,0.6,3.9,1.4c-1.5-1.5-4.3-1.9-6.8-1.9
				c-2.7-0.1-5.4,0.4-8.6,1.4c-1.8,0.5-3.6,1-5.3,1.6c-3.7,1.2-7.4,2.3-11.3,2.8C221.7,75.6,218.7,75.2,216.5,73.9"/>
			<polygon class="st4" points="324.6,11.8 324.6,11.7 155.3,11.7 155.3,35.2 155.6,35.2 155.6,12 324.4,12 324.4,34.9 324.6,34.9 
				324.6,11.7 			"/>
			<polygon class="st4" points="324.6,70.4 259.6,70.4 259.6,70.2 324.4,70.2 324.4,55.5 324.6,55.5 			"/>
			<polygon class="st4" points="214,70.4 155.3,70.4 155.3,55.5 155.6,55.5 155.6,70.2 214,70.2 			"/>
			<path class="st4" d="M153.2,55.1h-0.3c0-5.8,4.4-10.4,9.9-10.4v0.3C157.5,45.1,153.2,49.5,153.2,55.1"/>
			<path class="st4" d="M163.1,45.1c-5.5,0-10-4.7-10-10.5h0.3c0,5.6,4.4,10.1,9.8,10.1v0.3H163.1z"/>
			<path class="st4" d="M155.6,55.5h-0.3c0-5.9,4.4-10.6,9.9-10.6v0.3C159.9,45.1,155.6,49.7,155.6,55.5"/>
			<path class="st4" d="M165.4,45.1c-5.6,0-9.9-4.5-9.9-10.1h0.3c0,5.5,4.3,9.8,9.7,9.8v0.3H165.4z"/>
			<path class="st4" d="M327,55.7h-0.3c0-5.6-4.7-10.5-10.1-10.5v-0.3C322.2,44.9,327,49.8,327,55.7"/>
			<path class="st4" d="M316.7,45.2v-0.3c5.6,0,10-4.4,10-9.9h0.3C327,40.7,322.5,45.2,316.7,45.2"/>
			<path class="st4" d="M324.6,55.7h-0.3c0-5.6-4.7-10.5-10.1-10.5v-0.3c5.8,0,10.1-4.4,10.1-9.9h0.3c0,5.1-3.8,9.3-8.8,10
				C320.7,45.9,324.6,50.4,324.6,55.7"/>
			<path class="st4" d="M326.9,9.6h-174v25.2l0,0c0.1,5,3.5,9.2,8.1,10.1c-4.6,0.9-8.1,5-8.1,10.1l0,0v17.5h62.2v-0.4h-61.8V55.2
				l0,0v-0.1c0-5.4,4-9.7,9.1-9.9c-4.1,1.3-7.1,5.3-7.1,10.1l0,0v15.2h58.8v-0.4h-58.4V55.5l0,0v-0.1c0-5.6,4.3-10.3,9.5-10.3h0.1
				l0,0h0.1v-0.4h-0.1c-5.4,0-9.6-4.3-9.6-9.8v-0.1l0,0V12.1h168.6v22.8v0.1c0,5.5-4.4,9.8-10.1,9.8h-0.1v0.4h0.1
				c5.4,0,10,4.6,10.1,10.1v14.6h-64.6v0.4h65.1V55.7l0,0v-0.1c0-0.1,0-0.1,0-0.2l0,0l0,0c-0.1-4.6-3.2-8.8-7.6-10
				c5.2,0.3,9.5,4.9,9.5,10.4v0.1v16.4h-68.3v0.4h68.7V55.7v-0.1v-0.3l0,0c-0.1-5-3.8-9.2-8.4-10.3c4.8-0.8,8.4-4.9,8.4-10l0,0v-0.1
				v-0.1V9.5L326.9,9.6z M326.6,34.8L326.6,34.8c0,5.4-4.1,9.6-9.4,9.9c4.4-1.3,7.4-5.1,7.4-9.7l0,0v-0.1v-0.1V11.6l-0.1,0.1H155.2
				v23.5l0,0c0.1,4.5,3,8.3,7,9.5c-5-0.4-8.9-4.8-8.9-10v-0.1l0,0V10.1h173.3v24.8H326.6z M316.2,45.1c0.1,0,0.1,0,0.2,0v0.1
				C316.3,45.1,316.3,45.1,316.2,45.1 M316.6,45.1V45l0,0V45.1L316.6,45.1z M316.7,45c0.3,0,0.5,0,0.8,0.1
				C317.4,45.1,317,45.1,316.7,45L316.7,45z M155.4,35.1h0.1l0,0H155.4L155.4,35.1z M162.9,45c-0.3,0-0.5,0-0.8-0.1
				C162.3,44.9,162.5,44.9,162.9,45L162.9,45z M163.2,44.9h0.1H163.2L163.2,44.9z M153,34.7h0.1c0.1,5.1,3.8,9.4,8.6,10
				c-0.1,0-0.3,0-0.4,0C156.7,44,153.1,39.9,153,34.7 M214.9,72.3v0.1H153V55.2h0.1v17.1C153.1,72.3,214.9,72.3,214.9,72.3z
				 M153.1,55H153c0-5.1,3.6-9.3,8.4-10c0.1,0,0.2,0,0.4,0.1C156.9,45.6,153.2,49.8,153.1,55 M213.9,70.3v0.1h-58.5v-15h0.1v14.7
				h58.4V70.3z M155.5,55.3h-0.1c0-4.9,3.3-9.1,7.6-10.1h0.1l0,0c0.2,0,0.4-0.1,0.5-0.1s0.3,0,0.4,0.1
				C159.3,45.7,155.5,50,155.5,55.3 M165.2,45c-0.3,0-0.6,0-0.8,0C164.5,44.9,164.8,44.9,165.2,45L165.2,45z M164.1,44.8
				c-0.1,0-0.3,0-0.4,0.1c-0.2,0-0.4-0.1-0.5-0.1l0,0h-0.1H163c-4.3-1-7.4-4.8-7.6-9.5h0.1C155.6,40.3,159.3,44.3,164.1,44.8
				 M155.5,11.9v22.9h-0.1v-23h169v0.1l0,0v22.9h-0.1V11.9H155.5z M324.5,70.4h-64.8v-0.1h64.6V55.7h0.1V70.4z M324.5,55.6
				L324.5,55.6h-0.1H324.5L324.5,55.6z M324.5,55.3h-0.1c-0.1-5.5-4.7-10.3-10.1-10.3V45c5.6,0,10.1-4.4,10.1-9.9h0.1
				c0,4.7-3.3,8.8-8,9.8l0,0h-0.1l0,0c-0.2,0-0.4,0.1-0.6,0.1l-0.5,0.1l0.5,0.1C320.7,45.9,324.4,50.3,324.5,55.3 M326.9,55.6h-0.1
				l0,0H326.9L326.9,55.6z M326.9,72.4h-68.4v-0.1h68.3V55.7h0.1V72.4z M326.9,55.3h-0.1c-0.1-5.1-4.1-9.5-8.9-10.1
				c0.1,0,0.3,0,0.4,0C323,46,326.8,50.3,326.9,55.3 M318.2,45c-0.1,0-0.2,0-0.4-0.1c5-0.5,8.9-4.7,8.9-9.8h0.1
				C326.9,40.2,323.1,44.3,318.2,45 M326.8,34.8v-25H153.1v24.7H153V9.7h173.9v0.1v25H326.8z"/>
			<path class="st4" d="M234.1,66.5c-0.8-0.1-1.6,0.5-2.1,1c-1.7,1.7-2.7,4.4-1.9,6.6c1.3,2.8,5.3,4,8.2,3.8c3.2-0.3,6-2.4,8.7-4.1
				c2.8-2,6.5-3.1,9.6-1v0.1c-3.2-1.6-6.3-0.2-9,1.8c-2.7,1.9-5.6,4.1-9.1,4.3c-4.1,0.2-9.8-2.2-9-7.1
				C229.7,69.9,231.9,66.3,234.1,66.5L234.1,66.5z"/>
			<path class="st4" d="M238.1,79c-2.4,0-5.6-0.8-7.4-2.9c-1-1.3-1.5-2.6-1.3-4.2c0.3-2,2.5-5.6,4.8-5.4h0.1l-0.1,0.2h-0.1
				c-0.7-0.1-1.4,0.4-2,1c-1.6,1.6-2.7,4.3-1.8,6.5c0.9,2,4.1,4,8.1,3.7c2.7-0.2,5-1.8,7.2-3.2c0.4-0.3,0.9-0.6,1.4-0.9
				c4.6-3.1,7.8-2.3,9.7-1l0.4,0.2l-0.4-0.1l-0.1,0.1h-0.1c-2.7-1.3-5.5-0.7-8.9,1.8l-0.4,0.3c-2.5,1.8-5.4,3.9-8.8,4
				C238.3,79,238.2,79,238.1,79 M232.9,66.7c-1.8,0.8-3.2,3.6-3.6,5.1c-0.2,1.6,0.1,2.9,1.2,4.1c1.9,2.1,5.3,3,7.7,2.8
				c3.3-0.1,6.1-2.1,8.7-4l0.4-0.3c3.2-2.4,6.1-3,8.8-1.9c-1.9-1.2-4.9-1.7-9.2,1.3c-0.4,0.3-0.9,0.6-1.4,0.9
				c-2.2,1.5-4.6,3-7.3,3.2c-3,0.2-7-1-8.3-3.8c-0.9-2.3,0.3-5,1.9-6.7C232.3,67.3,232.6,67,232.9,66.7"/>
			<path class="st4" d="M335.2,54.4v0.7c0-0.2,0-0.3,0-0.5c0,0.2,0,0.4,0,0.6v-1c0.4-4.8,4.2-8.6,8.9-9.1c-4.7-0.5-8.5-4.3-8.9-9.1
				v-0.7c0,0.2,0,0.3,0,0.5c0-0.2,0-0.4,0-0.6v1c-0.4,4.8-4.2,8.6-8.9,9.1C331.1,45.8,334.7,49.7,335.2,54.4"/>
			<path class="st4" d="M144.3,54.4v0.7c0-0.2,0-0.3,0-0.5c0,0.2,0,0.4,0,0.6v-1c0.4-4.8,4.2-8.6,8.9-9.1c-4.7-0.5-8.5-4.3-8.9-9.1
				v-0.7c0,0.2,0,0.3,0,0.5c0-0.2,0-0.4,0-0.6v1c-0.4,4.8-4.2,8.6-8.9,9.1C140.2,45.8,143.9,49.7,144.3,54.4"/>
			<polygon class="st4" points="189.8,24.7 193.2,21.3 195,21.3 191.1,25.2 195,29.8 193.2,29.8 190.2,26.1 189.8,26.4 189.8,29.8 
				188.6,29.8 188.6,21.3 189.8,21.3 			"/>
			<path class="st4" d="M207.1,27.8h-3.7l-0.9,2.1h-1.4l4.2-9.1l4.1,9.1H208L207.1,27.8z M206.6,26.6l-1.3-2.9l-1.4,2.9H206.6z"/>
			<polygon class="st4" points="216.2,29.8 218,20.7 220.9,27.3 223.9,20.7 225.5,29.8 224.3,29.8 223.4,24.7 220.9,30.2 
				218.4,24.7 217.5,29.8 			"/>
			<path class="st4" d="M233.4,29.8v-8.5h1.8c0.8,0,1.6,0.1,2,0.2c0.5,0.2,1,0.4,1.5,0.8c0.8,0.8,1.4,1.9,1.4,3.1
				c0,1.4-0.4,2.4-1.4,3.1c-0.4,0.4-0.9,0.7-1.5,0.8c-0.4,0.2-1.2,0.2-2,0.2h-1.8V29.8z M234.6,28.7h0.6c0.6,0,1-0.1,1.5-0.2
				s0.7-0.3,1-0.6c0.6-0.6,0.9-1.4,0.9-2.3c0-0.9-0.3-1.7-0.9-2.3c-0.5-0.5-1.4-0.7-2.5-0.7h-0.6V28.7z"/>
			<polygon class="st4" points="248.8,24.7 252.5,24.7 252.5,21.3 253.8,21.3 253.8,29.8 252.5,29.8 252.5,25.8 248.8,25.8 
				248.8,29.8 247.6,29.8 247.6,21.3 248.8,21.3 			"/>
			<polygon class="st4" points="266.5,22.6 263.1,22.6 263.1,24.6 266.4,24.6 266.4,25.8 263.1,25.8 263.1,28.7 266.5,28.7 
				266.5,29.8 261.8,29.8 261.8,21.3 266.5,21.3 			"/>
			<polygon class="st4" points="274.3,29.8 274.3,20.7 280.4,27.3 280.4,21.3 281.7,21.3 281.7,30.3 275.5,23.9 275.5,29.8 			"/>
			<path class="st4" d="M291,21.3v5.1c0,0.7,0.1,1.3,0.3,1.6c0.3,0.5,0.8,0.7,1.5,0.7s1.2-0.2,1.5-0.7c0.2-0.3,0.3-0.8,0.3-1.6v-5.1
				h1.3v5.4c0,0.9-0.3,1.7-0.8,2.2c-0.6,0.6-1.4,0.9-2.3,0.9c-0.9,0-1.7-0.3-2.3-0.9c-0.5-0.6-0.8-1.4-0.8-2.2v-5.4H291z"/>
		</g>
		<g>
			<path class="st4" d="M157.6,92.7c-0.5-0.2-0.8-0.5-1.2-0.8c-0.3-0.4-0.4-0.8-0.4-1.4h1.9c0,0.3,0.1,0.6,0.4,0.8
				c0.2,0.2,0.5,0.3,0.9,0.3s0.7-0.1,0.9-0.3s0.3-0.4,0.3-0.7c0-0.2-0.1-0.4-0.2-0.6c-0.1-0.2-0.3-0.3-0.6-0.4
				c-0.2-0.1-0.5-0.2-0.9-0.3c-0.5-0.2-1-0.3-1.4-0.5s-0.6-0.4-0.9-0.7c-0.2-0.3-0.4-0.7-0.4-1.3s0.1-0.9,0.4-1.4
				c0.2-0.4,0.6-0.6,1-0.8c0.4-0.2,0.9-0.3,1.6-0.3c0.8,0,1.6,0.2,2.2,0.6c0.5,0.4,0.8,1,0.9,1.8h-1.9c0-0.3-0.1-0.5-0.4-0.7
				c-0.2-0.2-0.5-0.3-0.9-0.3c-0.3,0-0.6,0.1-0.8,0.2c-0.2,0.2-0.3,0.4-0.3,0.7c0,0.2,0.1,0.4,0.2,0.5c0.1,0.1,0.3,0.3,0.5,0.4
				s0.5,0.2,0.9,0.3c0.5,0.2,1,0.3,1.4,0.5s0.6,0.4,0.9,0.7c0.2,0.3,0.4,0.7,0.4,1.3c0,0.4-0.1,0.8-0.3,1.3c-0.2,0.4-0.6,0.7-1,0.9
				c-0.4,0.2-1,0.3-1.7,0.3C158.7,92.9,158.1,92.8,157.6,92.7z"/>
			<path class="st4" d="M167.9,85.7v2.1h2.9v1.4h-2.9v2.3h3.2v1.4h-4.9v-8.6h4.9v1.4h-3.2V85.7z"/>
			<path class="st4" d="M175.3,86.3c0.4-0.6,0.9-1.2,1.6-1.6c0.6-0.4,1.4-0.5,2.2-0.5c0.9,0,1.8,0.2,2.5,0.7s1.3,1.2,1.5,2h-2
				c-0.2-0.4-0.5-0.7-0.8-0.9c-0.3-0.2-0.7-0.3-1.3-0.3s-0.9,0.1-1.4,0.3c-0.4,0.2-0.7,0.5-0.9,0.9s-0.3,0.9-0.3,1.5
				c0,0.5,0.1,1,0.3,1.5s0.5,0.7,0.9,0.9c0.4,0.2,0.8,0.3,1.4,0.3c0.4,0,0.8-0.1,1.3-0.3c0.3-0.2,0.6-0.5,0.8-0.9h2
				c-0.3,0.8-0.8,1.6-1.5,2.1c-0.7,0.5-1.6,0.7-2.5,0.7c-0.8,0-1.6-0.2-2.2-0.5c-0.6-0.4-1.2-0.8-1.6-1.6c-0.4-0.6-0.5-1.5-0.5-2.3
				C174.8,87.5,175,86.9,175.3,86.3z"/>
			<path class="st4" d="M192.9,84.3v1.4h-2.3v7.1h-1.7v-7.1h-2.3v-1.4H192.9z"/>
			<path class="st4" d="M198.3,92.4c-0.6-0.4-1.2-0.9-1.6-1.6c-0.4-0.6-0.6-1.5-0.6-2.3s0.2-1.6,0.6-2.2c0.4-0.6,0.9-1.2,1.6-1.6
				c0.6-0.4,1.4-0.5,2.2-0.5c0.8,0,1.6,0.2,2.2,0.5c0.6,0.4,1.2,0.9,1.6,1.6s0.6,1.5,0.6,2.2c0,0.8-0.2,1.6-0.6,2.3
				c-0.4,0.6-0.9,1.2-1.6,1.6s-1.4,0.5-2.2,0.5C199.7,92.9,198.9,92.8,198.3,92.4z M201.9,91c0.4-0.2,0.7-0.5,0.9-1
				c0.2-0.4,0.3-0.9,0.3-1.5s-0.1-1-0.3-1.5s-0.5-0.7-0.9-0.9s-0.8-0.3-1.4-0.3s-0.9,0.1-1.4,0.3c-0.4,0.2-0.7,0.5-0.9,0.9
				s-0.3,0.9-0.3,1.5s0.1,1,0.3,1.5s0.5,0.7,0.9,1c0.4,0.2,0.8,0.3,1.4,0.3C201,91.4,201.5,91.3,201.9,91z"/>
			<path class="st4" d="M213,92.9l-1.9-3.3h-0.8v3.3h-1.7v-8.6h3.2c0.6,0,1.3,0.1,1.7,0.3c0.4,0.2,0.8,0.5,1,0.9s0.3,0.8,0.3,1.4
				s-0.2,1-0.5,1.6c-0.3,0.4-0.8,0.7-1.5,0.9l2.1,3.5L213,92.9L213,92.9z M210.3,88.2h1.5c0.4,0,0.8-0.1,1-0.3
				c0.2-0.2,0.3-0.5,0.3-0.9s-0.1-0.7-0.3-0.9c-0.2-0.2-0.6-0.3-1-0.3h-1.5V88.2z"/>
			<path class="st4" d="M224.4,86.2c0-0.4,0.1-0.8,0.3-1.3c0.2-0.3,0.5-0.6,1-0.8c0.4-0.2,1-0.3,1.7-0.3s1.3,0.1,1.7,0.3
				c0.4,0.2,0.8,0.5,1,0.8s0.3,0.7,0.3,1.3c0,0.4-0.1,0.8-0.3,1.2c-0.2,0.3-0.5,0.6-0.8,0.8c0.4,0.2,0.8,0.5,1,0.8
				c0.2,0.4,0.4,0.8,0.4,1.4s-0.1,1-0.4,1.5c-0.3,0.4-0.6,0.7-1.2,0.9c-0.5,0.2-1,0.3-1.7,0.3s-1.2-0.1-1.7-0.3
				c-0.5-0.2-0.8-0.5-1.2-0.9c-0.3-0.4-0.4-0.9-0.4-1.5s0.1-0.9,0.4-1.4c0.2-0.4,0.6-0.6,1-0.8C224.8,87.7,224.4,87,224.4,86.2z
				 M226.2,89.2c-0.3,0.2-0.4,0.6-0.4,1s0.1,0.7,0.4,1c0.3,0.2,0.6,0.4,1.2,0.4s0.8-0.1,1.2-0.4c0.3-0.2,0.4-0.6,0.4-0.9
				c0-0.4-0.1-0.7-0.4-1c-0.3-0.2-0.6-0.3-1.2-0.3C226.9,88.9,226.5,89,226.2,89.2z M228.3,85.5c-0.2-0.2-0.5-0.3-0.9-0.3
				s-0.7,0.1-0.9,0.3c-0.2,0.2-0.3,0.5-0.3,0.9s0.1,0.6,0.4,0.8c0.2,0.2,0.5,0.3,0.9,0.3c0.4,0,0.7-0.1,0.9-0.3
				c0.2-0.2,0.4-0.5,0.4-0.8C228.7,86,228.5,85.7,228.3,85.5z"/>
			<path class="st4" d="M236.5,91l-1.5,3.5h-1.2l0.8-3.5H236.5z"/>
			<path class="st4" d="M246.9,92.7c-0.5-0.2-0.8-0.5-1.2-0.8c-0.3-0.4-0.4-0.8-0.4-1.4h1.9c0,0.3,0.1,0.6,0.4,0.8
				c0.2,0.2,0.5,0.3,0.9,0.3s0.7-0.1,0.9-0.3c0.2-0.2,0.3-0.4,0.3-0.7c0-0.2-0.1-0.4-0.2-0.6c-0.1-0.2-0.3-0.3-0.6-0.4
				c-0.2-0.1-0.5-0.2-0.9-0.3c-0.5-0.2-1-0.3-1.4-0.5s-0.6-0.4-0.9-0.7c-0.2-0.3-0.4-0.7-0.4-1.3s0.1-0.9,0.4-1.4
				c0.2-0.4,0.6-0.6,1-0.8c0.4-0.2,0.9-0.3,1.6-0.3c0.8,0,1.6,0.2,2.2,0.6c0.5,0.4,0.8,1,0.9,1.8h-1.9c0-0.3-0.1-0.5-0.4-0.7
				c-0.2-0.2-0.5-0.3-0.9-0.3c-0.3,0-0.6,0.1-0.8,0.2c-0.2,0.2-0.3,0.4-0.3,0.7c0,0.2,0.1,0.4,0.2,0.5c0.1,0.1,0.3,0.3,0.5,0.4
				s0.5,0.2,0.9,0.3c0.5,0.2,1,0.3,1.4,0.5s0.6,0.4,0.9,0.7c0.2,0.3,0.4,0.7,0.4,1.3c0,0.4-0.1,0.8-0.3,1.3c-0.2,0.4-0.6,0.7-1,0.9
				c-0.4,0.2-1,0.3-1.7,0.3C247.9,92.9,247.4,92.8,246.9,92.7z"/>
			<path class="st4" d="M260.7,91.2h-3.5l-0.5,1.7h-1.8l3-8.6h2l3,8.6h-1.8L260.7,91.2z M260.1,89.9l-1.3-3.6l-1.3,3.6H260.1z"/>
			<path class="st4" d="M273.9,92.9h-1.7l-3.9-5.9v5.9h-1.8v-8.6h1.7l3.9,5.9v-5.9h1.7v8.6H273.9z"/>
			<path class="st4" d="M284,88.2c-0.2,0.4-0.5,0.7-1,0.9c-0.4,0.2-1,0.4-1.8,0.4h-1.5v3.2h-1.6v-8.6h3.1c0.6,0,1.3,0.1,1.7,0.3
				s0.8,0.5,1,0.9s0.3,0.8,0.3,1.4C284.3,87.5,284.2,87.9,284,88.2z M282.2,87.9c0.2-0.2,0.3-0.5,0.3-0.9c0-0.8-0.4-1.3-1.4-1.3
				h-1.4v2.5h1.4C281.6,88.2,282,88.1,282.2,87.9z"/>
			<path class="st4" d="M293.2,91.2h-3.5l-0.5,1.7h-1.8l3-8.6h2l3,8.6h-1.7L293.2,91.2z M292.8,89.9l-1.3-3.6l-1.3,3.6H292.8z"/>
			<path class="st4" d="M304.6,84.8c0.7,0.3,1.3,0.8,1.6,1.5c0.4,0.6,0.5,1.4,0.5,2.3c0,0.8-0.2,1.6-0.5,2.2
				c-0.4,0.6-0.9,1.2-1.6,1.5c-0.7,0.3-1.5,0.5-2.4,0.5h-3v-8.6h3C303.1,84.3,303.9,84.5,304.6,84.8z M304.2,90.7
				c0.5-0.5,0.7-1.2,0.7-2.1c0-0.9-0.2-1.6-0.7-2.1s-1.2-0.7-2.1-0.7h-1.3v5.6h1.3C303,91.4,303.8,91.1,304.2,90.7z"/>
			<path class="st4" d="M315.7,91.2h-3.5l-0.5,1.7h-1.8l3-8.6h2l3,8.6h-1.8L315.7,91.2z M315.2,89.9l-1.3-3.6l-1.3,3.6H315.2z"/>
			<path class="st4" d="M321.6,92.7c-0.2-0.2-0.3-0.4-0.3-0.7c0-0.3,0.1-0.5,0.3-0.7c0.2-0.2,0.4-0.3,0.7-0.3c0.3,0,0.5,0.1,0.7,0.3
				c0.2,0.2,0.3,0.4,0.3,0.7c0,0.3-0.1,0.5-0.3,0.7c-0.2,0.2-0.4,0.3-0.7,0.3C322.1,92.9,321.9,92.9,321.6,92.7z"/>
		</g>
	</g>
</g>
</svg>
